<svg width="114" height="28" viewBox="0 0 114 28" fill="none" xmlns="http://www.w3.org/2000/svg">
<g style="mix-blend-mode:luminosity" clip-path="url(#clip0_82_1065)">
<path d="M43.2374 5.28955C44.4854 5.28955 45.3921 5.06248 45.3921 3.81555C45.3921 2.56822 44.5229 2.41715 43.1625 2.41715C42.7464 2.41715 42.2932 2.45515 41.915 2.49262V5.28955H43.2374ZM41.877 7.44422V10.4677C42.2932 10.5431 42.7464 10.5432 43.2754 10.5432C44.5604 10.5432 45.4677 10.3166 45.4677 9.03115C45.4677 7.67075 44.4854 7.44422 43.2 7.44422H41.877ZM48.2265 3.58848C48.2265 4.72288 47.6218 5.85622 46.3745 6.34782C47.5088 6.72595 48.4156 7.63275 48.4156 9.33328C48.4156 12.3573 45.9969 12.924 43.351 12.924C41.688 12.924 40.2145 12.8103 38.9672 12.5838V0.489549C39.9494 0.301016 41.575 0.111416 43.1245 0.111416C45.5052 0.073416 48.2265 0.565016 48.2265 3.58848Z" fill="#DF2538"/>
<path d="M55.4834 8.23742C54.8787 8.27542 54.2365 8.31302 53.7074 8.42648C53.0266 8.57755 52.7241 8.84262 52.7241 9.71142C52.7241 10.5052 53.2157 10.7697 54.047 10.7697C54.5011 10.7697 54.9922 10.7317 55.4079 10.5806C55.4454 10.203 55.4834 9.71142 55.4834 9.29582V8.23742ZM50.0413 9.78688C50.0413 8.04888 50.797 6.99008 52.7621 6.68795C53.7074 6.53635 54.5766 6.49888 55.4834 6.46088C55.4834 5.59155 55.0303 5.25208 54.0094 5.25208C52.8381 5.25208 51.5151 5.40302 50.5698 5.51608L50.3433 3.43742C51.3255 3.24888 52.7621 3.05982 54.1605 3.05982C56.3531 3.05982 58.1667 3.66395 58.1667 6.23435V10.089C58.1667 10.7697 58.1293 11.3364 58.0913 11.9792C56.9194 12.6593 55.4834 12.924 53.8203 12.924C51.099 12.924 50.0413 11.8661 50.0413 9.78688Z" fill="#DF2538"/>
<path d="M62.8918 12.7729H60.1703V5.89482C60.1703 5.21402 60.2079 4.64735 60.2459 4.00468C61.4178 3.32455 62.9292 3.05988 64.5162 3.05988C68.0698 3.05988 68.4855 4.57188 68.4855 6.72602V12.7729H65.726V6.91455C65.726 5.74268 65.4995 5.28962 64.1766 5.28962C63.7615 5.28962 63.2694 5.36508 62.9672 5.47868C62.9292 5.85628 62.8918 6.34788 62.8918 6.76362V12.7729Z" fill="#DF2538"/>
<path d="M77.1027 12.5082C76.2323 12.7349 75.1374 12.924 73.7765 12.924C70.5254 12.924 70.0724 10.4297 70.0724 7.89728C70.0724 4.76035 70.8292 3.05982 74.3812 3.05982C75.5531 3.05982 76.3839 3.24888 77.1027 3.47542L76.876 5.47862C76.2323 5.36502 75.6661 5.21395 75.062 5.21395C73.1339 5.21395 72.8693 5.85622 72.8693 7.89728C72.8693 9.82488 72.9822 10.6942 75.0994 10.6942C75.7417 10.6942 76.2702 10.5806 76.9136 10.4297L77.1027 12.5082Z" fill="#DF2538"/>
<path d="M84.2079 7.97288C84.2079 5.89475 83.9057 5.28955 82.6208 5.28955C81.3355 5.28955 81.0333 5.85622 81.0333 7.97288C81.0333 10.1275 81.3355 10.6562 82.6208 10.6562C83.9057 10.6562 84.2079 10.089 84.2079 7.97288ZM78.312 7.97288C78.312 4.41968 79.4464 3.05982 82.6584 3.05982C85.8328 3.05982 87.0047 4.41968 87.0047 7.97288C87.0047 11.5259 85.8708 12.924 82.6584 12.924C79.4464 12.924 78.312 11.5639 78.312 7.97288Z" fill="#DF2538"/>
<path d="M45.0146 22.6375L43.6918 18.1776L42.4063 22.6375H45.0146ZM37.8708 27.8157L41.5375 17.0813C42.0282 15.6454 42.7464 15.0412 43.8047 15.0412C44.8251 15.0412 45.5807 15.6829 46.035 17.0813L49.6631 27.8157H46.526L45.6563 24.9433H41.726L40.8948 27.8157H37.8708Z" fill="#DF2538"/>
<path d="M59.9432 15.0786V24.8302C59.9432 25.5099 60.2079 25.8495 60.9266 25.8495C61.2287 25.8495 61.4552 25.812 61.7574 25.7365L62.0214 27.7781C61.4552 27.8912 60.7364 27.9667 60.1703 27.9667C58.0536 27.9667 57.147 27.0214 57.147 25.1698V15.0786H59.9432Z" fill="#DF2538"/>
<path d="M67.9943 16.9683H65.8771L67.3137 14.5495H70.0725L67.9943 16.9683ZM68.2209 23.2427C67.6157 23.2808 66.9735 23.3183 66.4058 23.4318C65.7261 23.5828 65.4241 23.8469 65.4241 24.7167C65.4241 25.5474 65.9151 25.774 66.747 25.774C67.2001 25.774 67.6913 25.7365 68.1079 25.5854C68.1454 25.2078 68.1829 24.7167 68.1829 24.3V23.2427H68.2209ZM62.7407 24.7922C62.7407 23.0526 63.4959 21.9953 65.4995 21.6542C66.4433 21.5032 67.3137 21.4657 68.2589 21.4276C68.2589 20.5594 67.8042 20.2183 66.785 20.2183C65.6131 20.2183 64.2902 20.3703 63.3069 20.4839L63.0803 18.4042C64.0637 18.2157 65.4995 18.0266 66.9361 18.0266C69.1271 18.0266 70.9422 18.6308 70.9422 21.2011V25.0943C70.9422 25.774 70.9042 26.3417 70.8667 26.9839C69.6949 27.6646 68.2209 27.9292 66.5585 27.9292C63.799 27.9292 62.7407 26.9084 62.7407 24.7922Z" fill="#DF2538"/>
<path d="M75.8172 27.8157H73.0583V20.8615C73.0583 20.1803 73.0958 19.6141 73.1338 18.9719C74.3057 18.2912 75.8172 18.0266 77.4041 18.0266C80.9578 18.0266 81.3734 19.5386 81.3734 21.7297V27.8157H78.6139V21.9198C78.6139 20.748 78.3874 20.2558 77.0645 20.2558C76.6489 20.2558 76.1573 20.3313 75.8546 20.4459C75.8171 20.8235 75.7797 21.3146 75.7797 21.7297V27.8157H75.8172Z" fill="#DF2538"/>
<path d="M90.0281 18.0266H92.825V27.8157H90.0281V18.0266ZM89.9526 15.8339C89.9526 14.8516 90.3302 14.4364 91.4645 14.4364C92.5984 14.4364 92.976 14.8141 92.976 15.8339C92.976 16.8172 92.5984 17.2323 91.4645 17.2323C90.2926 17.2323 89.9526 16.8172 89.9526 15.8339Z" fill="#DF2538"/>
<path d="M99.5907 20.2558C97.5881 20.2558 97.5115 21.4276 97.5115 22.9771C97.5115 24.3381 97.5881 25.7365 99.3641 25.7365C99.8173 25.7365 100.308 25.661 100.574 25.5474C100.612 25.1698 100.649 24.6792 100.649 24.2625V20.3703C100.346 20.2938 99.9307 20.2558 99.5907 20.2558ZM100.649 15.0787H103.446V25.0943C103.446 25.774 103.408 26.3417 103.371 26.9839C102.275 27.6646 100.725 27.9292 99.4022 27.9292C96.1131 27.9292 94.7522 26.7573 94.7522 22.9771C94.7522 19.1985 96.1131 18.0266 99.1375 18.0266C99.6287 18.0266 100.195 18.0646 100.687 18.1776V15.0787H100.649Z" fill="#DF2538"/>
<path d="M110.665 23.2427C110.059 23.2808 109.418 23.3183 108.85 23.4318C108.17 23.5828 107.868 23.8469 107.868 24.7167C107.868 25.5474 108.359 25.774 109.229 25.774C109.682 25.774 110.173 25.7365 110.59 25.5854C110.627 25.2078 110.665 24.7167 110.665 24.3V23.2427ZM105.184 24.7922C105.184 23.0526 105.94 21.9953 107.943 21.6542C108.889 21.5032 109.757 21.4657 110.703 21.4276C110.703 20.5594 110.248 20.2183 109.229 20.2183C108.057 20.2183 106.734 20.3703 105.751 20.4839L105.525 18.4042C106.507 18.2157 107.943 18.0266 109.38 18.0266C111.571 18.0266 113.386 18.6308 113.386 21.2011V25.0943C113.386 25.774 113.348 26.3417 113.31 26.9839C112.139 27.6646 110.665 27.9292 109.002 27.9292C106.281 27.9292 105.184 26.9084 105.184 24.7922Z" fill="#DF2538"/>
<path d="M86.0973 15.0786V18.0266H88.4787V20.3313H86.0973V24.8302C86.0973 25.5099 86.3631 25.8495 87.0803 25.8495C87.3823 25.8495 87.6469 25.8495 87.988 25.812L88.2146 27.7781C87.647 27.8912 86.9292 27.9667 86.3631 27.9667C84.2459 27.9667 83.338 27.0214 83.338 25.1698V15.0786H86.0973Z" fill="#DF2538"/>
<path d="M53.2912 15.0786V18.0266H55.7104V20.3313H53.2912V24.8302C53.2912 25.5099 53.5562 25.8495 54.2745 25.8495C54.5765 25.8495 54.8406 25.8495 55.1812 25.812L55.4078 27.7781C54.8406 27.8912 54.1224 27.9667 53.5562 27.9667C51.4396 27.9667 50.5322 27.0214 50.5322 25.1698V15.0786H53.2912Z" fill="#DF2538"/>
<mask id="mask0_82_1065" style="mask-type:luminance" maskUnits="userSpaceOnUse" x="0" y="0" width="114" height="28">
<path d="M0 27.9667H113.333V0.10001H0V27.9667Z" fill="white"/>
</mask>
<g mask="url(#mask0_82_1065)">
<mask id="mask1_82_1065" style="mask-type:luminance" maskUnits="userSpaceOnUse" x="0" y="0" width="20" height="28">
<path d="M0.907292 0.0360348C0.415625 0.0360348 0 0.452168 0 0.943235V15.9474C0 23.2052 4.68645 27.9292 11.9437 27.9292H18.1417C18.6328 27.9292 19.0489 27.5136 19.0489 27.0214V19.6516C19.0489 19.161 18.6328 18.7443 18.1417 18.7443H14.1735C13.6817 18.7443 11.301 18.6688 11.301 15.8719V0.943235C11.301 0.452168 10.8849 0.0360348 10.3932 0.0360348H0.907292Z" fill="white"/>
</mask>
<g mask="url(#mask1_82_1065)">
<path d="M10.4 27.9667V27.8333H9.2V27.7H8.8V27.5667H8.26667V27.4333H7.73333V27.3H7.33333V27.1667H6.8V27.0333H6.53333V26.9H6.26667V26.7667H6V26.6333H5.86667V26.5H5.6V26.3667H5.33333V26.2333H5.06667V26.1H4.8V25.9667H4.66667V25.8333H4.53333V25.7H4.26667V25.5667H4.13333V25.4333H4V25.3H3.86667V25.1667H3.6V25.0333H3.46667V24.9H3.33333V24.7667H3.2V24.6333H3.06667V24.5H2.93333V24.3667H2.8V24.1H2.66667V23.9667H2.53333V23.8333H2.4V23.7H2.26667V23.4333H2.13333V23.3H2V23.1667H1.86667V23.0333H1.73333V22.7667H1.6V22.5H1.46667V22.2333H1.33333V21.9667H1.2V21.7H1.06667V21.4333H0.933333V21.1667H0.8V20.7667H0.666667V20.2333H0.533333V19.8333H0.4V19.3H0.266667V18.7667H0.133333V17.8333H0V0.50001H0.133333V0.233343H0.266667V0.10001H10.9333V0.233343H11.2V0.50001H11.3333V16.2333H11.4667V16.9H11.6V17.1667H11.7333V17.5667H11.8667V17.7H12V17.8333H12.1333V17.9667H12.2667V18.1H12.4V18.2333H12.6667V18.3667H12.9333V18.5H13.3333V18.6333H18.4V18.7667H18.6667V18.9H18.8V19.0333H18.9333V19.1667H19.0667V27.5667H18.9333V27.7H18.8V27.8333H18.5333V27.9667" fill="url(#paint0_linear_82_1065)"/>
</g>
</g>
<mask id="mask2_82_1065" style="mask-type:luminance" maskUnits="userSpaceOnUse" x="12" y="4" width="20" height="24">
<path d="M13.5688 4.0421C13.0771 4.0421 12.6615 4.45783 12.6615 4.94943V13.4156C12.6615 13.9068 13.0771 14.3224 13.5688 14.3224H18.0656C18.5574 14.3224 20.3344 14.3984 20.3344 17.1948V26.9838C20.3344 27.476 20.7495 27.8911 21.2412 27.8911H30.6896C31.1812 27.8911 31.5974 27.476 31.5974 26.9838V16.0229C31.5974 8.76717 26.9104 4.0421 19.6536 4.0421H13.5688Z" fill="white"/>
</mask>
<g mask="url(#mask2_82_1065)">
<path d="M13.5688 4.0421C13.0771 4.0421 12.6615 4.45783 12.6615 4.94943V13.4156C12.6615 13.9068 13.0771 14.3224 13.5688 14.3224H18.0656C18.5574 14.3224 20.3344 14.3984 20.3344 17.1948V26.9838C20.3344 27.476 20.7495 27.8911 21.2412 27.8911H30.6896C31.1812 27.8911 31.5974 27.476 31.5974 26.9838V16.0229C31.5974 8.76717 26.9104 4.0421 19.6536 4.0421H13.5688Z" fill="url(#paint1_linear_82_1065)"/>
</g>
</g>
<defs>
<linearGradient id="paint0_linear_82_1065" x1="5.56369" y1="13.9824" x2="19.2992" y2="13.9824" gradientUnits="userSpaceOnUse">
<stop stop-color="#D81B31"/>
<stop offset="0.6633" stop-color="#BD1C2C"/>
<stop offset="1" stop-color="#AE1B2B"/>
</linearGradient>
<linearGradient id="paint1_linear_82_1065" x1="25.4048" y1="15.9666" x2="13.965" y2="15.9666" gradientUnits="userSpaceOnUse">
<stop stop-color="#D81B31"/>
<stop offset="0.6633" stop-color="#BD1C2C"/>
<stop offset="1" stop-color="#AE1B2B"/>
</linearGradient>
<clipPath id="clip0_82_1065">
<rect width="113.387" height="27.9333" fill="white" transform="translate(0 0.0333252)"/>
</clipPath>
</defs>
</svg>
