<svg width="160" height="40" viewBox="0 0 160 40" fill="none" xmlns="http://www.w3.org/2000/svg">
<path d="M13.4187 11.3968C13.4187 13.0883 12.5508 14.5086 11.2375 15.322C10.4891 15.7883 9.58802 16.0486 7.90636 16.0486H0.386719V0.5H6.4956C8.13418 0.5 9.01298 0.694965 9.7618 1.10716C11.281 1.9312 12.1163 3.54678 12.1163 5.1514C12.1163 6.13827 11.8013 6.91886 11.2156 7.62387C12.4855 8.3935 13.4187 9.62974 13.4187 11.3968ZM4.23891 6.49607H6.6369C7.11445 6.49607 7.34227 6.47453 7.55951 6.38763C8.02575 6.20326 8.40582 5.80201 8.40582 5.22734C8.40582 4.67457 8.0367 4.26238 7.55951 4.06741C7.35323 3.98052 7.12541 3.93707 6.6369 3.93707H4.23891V6.49607ZM9.58838 11.1584C9.58838 10.5513 9.19809 10.1066 8.67709 9.90064C8.45985 9.81375 8.21012 9.77067 7.6789 9.77067H4.23891V12.5465H7.68949C8.19917 12.5465 8.4489 12.5031 8.67672 12.4162C9.17582 12.2103 9.58838 11.7765 9.58838 11.1584Z" fill="#697076" stroke="black" stroke-width="0.0730204" stroke-miterlimit="10"/>
<path d="M16.875 8.27411C16.875 3.89362 20.2277 0.5 24.8284 0.5C29.429 0.5 32.7818 3.89362 32.7818 8.27411C32.7818 12.6546 29.429 16.0486 24.8284 16.0486C20.2277 16.0486 16.875 12.6546 16.875 8.27411ZM20.8247 8.27411C20.8247 10.6268 22.3548 12.4812 24.8287 12.4812C27.3027 12.4812 28.8328 10.6268 28.8328 8.27411C28.8328 5.9214 27.3027 4.05646 24.8287 4.05646C22.3548 4.05646 20.8247 5.9214 20.8247 8.27411Z" fill="#697076" stroke="black" stroke-width="0.0730204" stroke-miterlimit="10"/>
<path d="M45.483 0.879341C48.6732 1.86621 51.0168 4.72861 51.0168 8.28507C51.0168 11.8412 48.6838 14.7039 45.4936 15.6798C44.7338 15.9073 43.9313 16.0486 42.7049 16.0486H37.0626V0.5H42.7053C43.9316 0.5 44.7341 0.651883 45.483 0.879341ZM44.821 12.0693C46.2639 11.3972 47.1325 9.92255 47.1325 8.24198C47.1325 6.56142 46.2639 5.11927 44.832 4.44712C44.3 4.19775 43.7254 4.05682 42.7162 4.05682H40.9473V12.471H42.7162C43.725 12.4706 44.3 12.3187 44.821 12.0693Z" fill="#697076" stroke="black" stroke-width="0.0730204" stroke-miterlimit="10"/>
<path d="M66.5604 0.5V4.03455H59.182V5.8345H64.7593V9.31502H59.182V12.4706H66.5604V16.0486H55.2974V0.5H66.5604Z" fill="#697076" stroke="black" stroke-width="0.0730204" stroke-miterlimit="10"/>
<path d="M80.4663 5.07546C79.4243 4.30582 78.5349 4.0455 77.7102 4.0455C75.2691 4.0455 73.663 5.91045 73.663 8.28507C73.663 10.5184 75.2362 12.4918 77.7102 12.4918C79.5222 12.4918 81.1392 11.4184 81.7142 9.40155H77.1676V5.82355H85.2623C85.5226 6.69103 85.6424 7.52602 85.6424 8.32815C85.6424 12.6977 82.2677 16.0482 77.7105 16.0482C73.3486 16.0482 69.7352 12.8605 69.7352 8.28507C69.7352 3.88267 73.142 0.5 77.7105 0.5C79.3491 0.5 80.9333 0.944695 82.6262 2.09367L80.4663 5.07546Z" fill="#697076" stroke="black" stroke-width="0.0730204" stroke-miterlimit="10"/>
<path d="M98.7992 13.7065H92.7225L91.8977 16.0486H87.7633L93.8941 0.5H97.6484L103.757 16.0486H99.6342L98.7992 13.7065ZM94.0029 10.2259H97.5298L95.7718 5.24888L94.0029 10.2259Z" fill="#697076" stroke="black" stroke-width="0.0730204" stroke-miterlimit="10"/>
<path d="M119.41 16.0486L111.163 7.27665V16.0486H107.279V0.5H109.471L117.728 9.27194V0.5H121.613V16.0486H119.41Z" fill="#697076" stroke="black" stroke-width="0.0730204" stroke-miterlimit="10"/>
<path d="M136.625 5.07546C135.583 4.30582 134.693 4.0455 133.868 4.0455C131.427 4.0455 129.821 5.91045 129.821 8.28507C129.821 10.5184 131.394 12.4918 133.868 12.4918C135.68 12.4918 137.297 11.4184 137.872 9.40155H133.326V5.82355H141.42C141.681 6.69103 141.801 7.52602 141.801 8.32815C141.801 12.6977 138.426 16.0482 133.869 16.0482C129.507 16.0482 125.893 12.8605 125.893 8.28507C125.893 3.88267 129.3 0.5 133.869 0.5C135.507 0.5 137.091 0.944695 138.784 2.09367L136.625 5.07546Z" fill="#697076" stroke="black" stroke-width="0.0730204" stroke-miterlimit="10"/>
<path d="M154.957 13.7065H148.881L148.056 16.0486H143.921L150.052 0.5H153.807L159.915 16.0486H155.792L154.957 13.7065ZM150.161 10.2259H153.688L151.93 5.24888L150.161 10.2259Z" fill="#697076" stroke="black" stroke-width="0.0730204" stroke-miterlimit="10"/>
<path d="M107.032 28.9102C104.32 29.5345 102.073 30.2129 100.754 30.4977C95.4902 31.6335 93.9392 29.5301 93.657 29.0424C93.6201 28.9785 93.6304 28.9025 93.6815 28.8492C94.1579 28.3501 96.7279 25.9934 96.8224 21.3208C96.848 20.0225 96.5242 18.036 94.8976 18.0345C91.6898 18.0316 91.0721 23.8594 91.0458 25.2811C90.9929 28.092 91.5595 29.3041 91.5398 29.3158C89.0001 30.8033 85.9077 30.7751 86.3407 28.2994C86.4408 27.7269 86.715 27.0318 86.7153 26.6119C86.7157 26.0182 85.3228 25.7225 84.3648 25.7389C82.7843 25.7648 80.2329 26.8872 80.2432 29.157C80.2443 29.3187 80.3304 29.6386 80.3925 29.7488C80.008 29.8748 78.7419 30.0738 77.1489 29.9584C76.9996 29.9475 76.9452 29.7591 77.0598 29.6623C78.433 28.5002 78.9007 27.1453 78.9018 25.8959C78.9021 25.5137 78.6597 25.4852 78.3925 25.4848C78.3293 25.4848 78.2391 25.4881 77.9682 25.5089C77.2245 25.571 76.3607 25.7882 75.6246 26.1117C74.3701 26.6626 73.0766 27.433 72.6859 27.671C72.6173 27.7127 72.5337 27.6948 72.4807 27.6342C72.3719 27.5097 72.1748 27.326 71.971 27.345C71.6534 27.376 70.565 27.7141 70.5647 28.2771C70.5647 28.4418 70.7111 28.6214 70.7878 28.7711C70.2021 29.1187 69.3445 29.4597 68.6844 29.4816C67.9911 29.5057 67.6771 29.2297 67.6778 28.4987C67.6786 27.8058 68.2397 26.5911 68.2269 26.3092C68.1985 25.6816 66.4244 25.5699 66.0506 25.5735C64.1721 25.5918 61.9067 27.0095 61.9048 29.1154C61.9045 29.4071 61.9786 29.7054 62.2323 29.9931C62.3086 30.0796 62.29 30.2165 62.1856 30.2658C61.4087 30.6331 60.6927 30.8193 59.9125 30.8186C59.2615 30.8179 58.382 30.5926 57.9011 29.7361C57.8683 29.6776 57.8763 29.6006 57.9175 29.548C59.677 27.2961 60.4148 24.9229 60.616 22.6699C60.7179 20.5377 60.2476 18.4402 58.5915 18.5249C55.2947 18.6917 55.2173 22.4486 55.1534 23.9817C55.1534 23.9817 55.0168 27.2074 55.8065 30.0639C55.8219 30.1198 55.8073 30.1818 55.7678 30.2246C55.0113 31.0442 54.1041 31.3578 53.2924 31.4097C51.8861 31.4995 50.9043 30.7386 50.9058 29.0935C50.9065 28.0507 51.5294 26.7444 51.5053 26.4691C51.4713 26.0766 51.0744 25.8072 50.6221 25.8068L46.1704 25.8028C46.0842 25.8028 46.0119 25.7367 46.0043 25.6509C45.7542 22.809 45.7377 19.9177 45.7377 19.9177C45.7348 19.7034 45.8506 18.9323 45.2909 19.0357C45.1474 19.0619 43.9221 19.3657 43.8713 19.9141C43.8012 21.8276 43.9279 23.8265 44.0722 25.6243C44.0798 25.721 44.0035 25.8014 43.9068 25.8014L40.8983 25.7988C40.8169 25.7988 40.7475 25.7429 40.734 25.6626C40.4149 23.7729 40.1776 21.3683 39.9783 18.6037C39.929 18.0572 38.044 18.7695 38.0746 19.4234C38.1414 20.8736 38.359 22.8813 38.7939 25.6006C38.8099 25.7013 38.7329 25.7966 38.631 25.7966L24.7608 25.7846C24.4793 25.7842 24.1044 25.9908 24.104 26.4867C24.1036 26.9405 24.4782 27.165 24.7594 27.1654L38.8662 27.1778C38.9461 27.1778 39.014 27.2333 39.0283 27.3122C39.4952 29.9427 40.1532 32.873 41.052 35.7697C41.1207 35.991 41.3934 36.0049 41.4865 36.0049C41.7545 36.0052 42.8385 35.6796 42.9119 35.0468C42.9436 34.7752 42.4602 33.8139 42.0239 32.1888C41.8961 31.7365 41.4781 29.9942 41.0345 27.3782C41.0173 27.2767 41.0951 27.18 41.1984 27.18L44.0272 27.1825C44.113 27.1825 44.1846 27.2508 44.1926 27.3362C44.2938 28.406 44.3777 29.1026 44.3777 29.1026C44.5734 30.5557 44.8279 32.0439 45.2094 33.4597C45.2467 33.597 45.4358 33.7215 45.6633 33.6934C46.0214 33.6492 47.1032 33.2892 47.07 32.6868C47.0598 32.513 46.434 29.5743 46.1697 27.4969L46.1317 27.1851L49.5954 27.188C49.7261 27.188 49.8006 27.3289 49.7345 27.4414C49.2584 28.253 49.0445 29.2209 49.0394 29.8394C49.0229 31.3137 50.0065 32.4736 51.9098 32.6532C54.2658 32.8314 55.1749 32.1487 56.3462 31.2052C56.4221 31.1443 56.5324 31.1643 56.5871 31.245C58.4331 33.9614 63.6606 31.398 65.5595 29.483C65.6504 29.3914 65.8063 29.4436 65.8326 29.5699C66.0327 30.5214 66.9348 30.777 67.6136 30.7773C68.9133 30.7784 70.0758 30.2947 71.3946 29.6112C71.453 29.5809 71.5234 29.5889 71.5735 29.6316C73.1558 30.9858 75.6246 31.2516 76.5461 31.3148C80.7499 31.6072 83.1746 30.49 84.2881 29.368C84.3809 29.2749 84.5422 29.3271 84.5616 29.4571C84.8212 31.1925 86.6321 31.7386 87.8431 31.7397C89.1801 31.7408 90.6639 31.2363 91.9681 30.3633C92.0407 30.3147 92.1331 30.3323 92.1857 30.402C93.0316 31.5243 94.9301 32.0698 95.9575 32.1202C99.4749 32.2936 104.12 30.7211 105.365 30.3932C105.937 30.2417 106.488 30.1107 107.032 29.9858V28.9102H107.032ZM57.1921 27.6342C57.0172 26.1749 56.731 21.9795 57.7262 20.0167C57.7503 19.9692 57.7978 19.932 57.8504 19.9229C59.4444 19.6414 58.6671 25.4249 57.5039 27.6926C57.4298 27.8368 57.2114 27.7952 57.1921 27.6342ZM66.3963 27.1223C66.0206 27.7039 64.6069 29.1106 64.0516 28.985C63.7022 28.9062 63.7139 28.4797 63.7365 28.3355C63.895 27.3143 65.4186 26.445 66.3353 26.8879C66.4215 26.9295 66.4482 27.042 66.3963 27.1223ZM75.073 29.421C74.7732 29.4571 73.993 29.1891 73.3957 28.7003C73.3088 28.6291 73.3227 28.4918 73.4187 28.4334C74.5012 27.7769 75.698 27.0098 76.8466 26.8054C76.947 26.7875 77.0379 26.8645 77.0452 26.9664C77.0971 27.6919 76.372 29.268 75.073 29.421ZM84.8595 27.1387C84.4838 27.7203 83.0712 29.1271 82.5148 29.0015C82.1662 28.9226 82.1778 28.4962 82.1997 28.352C82.3589 27.3308 83.8821 26.4615 84.7989 26.9043C84.8847 26.9456 84.9114 27.058 84.8595 27.1387ZM92.9553 27.307C92.6778 25.7915 92.7238 21.3373 94.0645 19.5274C94.0999 19.4793 94.1612 19.4497 94.2204 19.4577C95.7615 19.6592 94.7925 25.3099 93.255 27.3673C93.1678 27.4845 92.9819 27.4509 92.9553 27.307Z" fill="#697076" stroke="black" stroke-width="0.0730204" stroke-miterlimit="10"/>
<path d="M135.416 25.7279C134.792 25.4884 133.542 25.1857 126.043 23.4588C118.554 21.7341 116.606 21.3 115.853 21.1872C115.177 21.0857 114.109 21.2762 113.433 21.6187C113.284 21.6939 112.933 21.9068 112.652 22.0926C112.043 22.4939 109.028 24.5209 108.22 25.0718L107.653 25.4581L107.501 25.6958C107.235 26.1124 107.021 26.7626 107.105 26.8981C107.145 26.9627 107.249 26.9342 107.799 26.7079C109.773 25.8948 112.923 25.5205 114.962 25.8564C115.757 25.9875 116.202 26.2792 116.587 26.8988C116.795 27.2321 116.896 27.6305 116.864 28.0215C116.805 28.7473 116.496 29.272 115.906 29.6393C115.358 29.9806 114.986 30.0416 114.344 29.8959C113.853 29.7842 113.632 29.6612 113.303 29.3169C113.131 29.1365 112.979 28.9394 112.928 28.8346C113.555 28.8324 114.001 28.8824 114.24 28.9025C114.382 28.924 114.542 28.8444 114.617 28.7787C114.642 28.7586 115.671 27.6845 115.394 27.2825C115.255 27.0839 115.126 27.0806 115.126 27.0806C112.02 26.6702 107.803 27.9868 105.061 29.3965C105.264 29.8565 106.006 29.7214 106.218 30.1778C106.621 29.9982 107.718 29.9087 108.094 29.7707C108.157 29.7477 108.226 29.7652 108.272 29.8141C108.535 30.0916 108.78 30.372 108.888 30.559C109.174 31.0533 109.682 31.9127 110.015 32.4659C110.531 33.3224 110.655 33.5104 110.844 33.7248C111.251 34.1881 111.884 34.6547 112.462 34.9186C112.879 35.1089 114.737 35.5583 122.709 37.3984C129.861 39.049 131.31 39.3674 132.106 39.4623C132.721 39.5357 132.795 39.5215 133.235 39.2444C133.554 39.0432 133.612 38.9954 133.707 38.8563C133.99 38.4382 134.205 37.6208 135.389 32.4451C136.291 28.4994 136.47 27.633 136.472 27.1913C136.474 26.8459 136.451 26.7787 136.193 26.3661C135.923 25.9335 135.899 25.9138 135.416 25.7279ZM124.05 31.0398C124.201 31.5893 124.211 31.7795 124.111 32.1931C123.954 32.8452 123.553 33.4181 123.017 33.7536C122.857 33.854 122.751 33.8909 122.323 33.9942C121.763 34.1293 121.55 34.1369 121.167 34.0267C120.796 33.9201 120.273 33.5973 120.01 33.3151C119.737 33.0219 119.653 32.8372 119.511 32.2512C119.4 31.7912 119.385 31.686 119.4 31.4947C119.427 31.1544 119.555 30.7849 119.759 30.4556C120.054 29.9781 120.379 29.7075 120.907 29.4991C121.414 29.299 121.771 29.2701 122.287 29.3881C122.863 29.5202 123.421 29.8941 123.782 30.3925C123.911 30.5684 123.939 30.6374 124.05 31.0398ZM126.319 33.0734L126.83 36.5945L126.74 36.7456C126.568 37.0359 126.267 37.1552 126 37.0391C125.783 36.9446 125.713 36.8438 125.645 36.5265C125.591 36.2743 125.169 33.4367 124.46 28.5534L124.183 26.6483L124.269 26.5308C124.316 26.4662 124.406 26.3712 124.469 26.3205C124.618 26.1996 124.739 26.1715 124.93 26.2146C125.157 26.2657 125.301 26.4296 125.367 26.7104C125.428 26.9769 125.657 28.506 126.319 33.0734ZM131.554 30.9956C131.65 31.3914 131.66 31.4786 131.64 31.7141C131.603 32.1384 131.502 32.4418 131.27 32.8219C131.095 33.1077 131.014 33.2034 130.79 33.3907C130.488 33.6437 130.295 33.735 129.812 33.8514C129.329 33.9679 129.115 33.9752 128.731 33.888C128.443 33.8226 128.331 33.7751 128.025 33.5882C127.748 33.4188 127.643 33.3363 127.5 33.1672C127.221 32.8386 127.035 32.4389 126.939 32.019C126.882 31.7715 126.869 31.6411 126.877 31.4472C126.911 30.5918 127.381 29.8598 128.158 29.4527C128.587 29.2278 129 29.1329 129.41 29.1657C130.161 29.2256 130.878 29.6604 131.294 30.3092C131.432 30.525 131.455 30.5838 131.554 30.9956Z" fill="#697076" stroke="black" stroke-width="0.0730204" stroke-miterlimit="10"/>
<path d="M121.918 30.9931C121.482 30.7518 120.863 30.9511 120.593 31.4199C120.499 31.5827 120.473 31.8953 120.534 32.1099C120.634 32.459 121.083 32.8274 121.423 32.8398C121.567 32.8449 121.882 32.7273 122.053 32.6043C122.13 32.5495 122.238 32.4276 122.29 32.337C122.371 32.1976 122.389 32.1275 122.398 31.9058C122.417 31.4893 122.253 31.1786 121.918 30.9931Z" fill="#697076" stroke="black" stroke-width="0.0730204" stroke-miterlimit="10"/>
<path d="M129.658 30.7769C129.436 30.6948 129.106 30.7076 128.878 30.8065C128.151 31.1234 128.14 32.1592 128.859 32.5331C129.21 32.7149 129.6 32.6532 129.92 32.3655C130.08 32.2217 130.129 32.153 130.182 31.996C130.35 31.4999 130.111 30.9449 129.658 30.7769Z" fill="#697076" stroke="black" stroke-width="0.0730204" stroke-miterlimit="10"/>
<path d="M51.5393 24.2938C52.2742 24.1255 52.8704 23.5826 52.8708 23.0809C52.8712 22.5793 52.2757 22.3095 51.5408 22.4778C50.8058 22.6461 50.2085 23.189 50.2078 23.691C50.2074 24.1923 50.8043 24.4621 51.5393 24.2938Z" fill="#697076" stroke="black" stroke-width="0.0730204" stroke-miterlimit="10"/>
</svg>
