<svg width="145" height="40" viewBox="0 0 145 40" fill="none" xmlns="http://www.w3.org/2000/svg">
<g style="mix-blend-mode:luminosity" clip-path="url(#clip0_82_1117)">
<mask id="mask0_82_1117" style="mask-type:luminance" maskUnits="userSpaceOnUse" x="0" y="0" width="145" height="40">
<path d="M144.101 0.5H0.915283V39.5H144.101V0.5Z" fill="white"/>
</mask>
<g mask="url(#mask0_82_1117)">
<path d="M0.955506 32.9947C0.955506 32.9947 1.08819 30.0937 2.26026 24.6676C3.43032 19.2395 4.70895 15.1684 4.70895 15.1684C4.70895 15.1684 5.21356 12.3216 7.10335 11.1516C8.99314 9.98151 11.3614 10.0076 13.0099 11.5516C14.6585 13.0956 14.2604 15.09 13.5427 17.1386C12.825 19.1872 11.8922 22.4601 11.4137 24.4826C10.9352 26.5051 10.4286 29.778 10.4286 29.778C10.4286 29.778 12.5576 29.8303 13.6472 29.5649C14.7389 29.2996 15.0565 29.3257 15.0565 29.3257C15.0565 29.3257 15.6416 25.6808 18.0641 22.1425C20.4847 18.6042 24.5839 16.0771 29.0792 17.5668C29.0792 17.5668 30.01 17.0622 31.5801 17.221C33.1503 17.3798 35.4381 17.9126 35.81 20.2547C35.81 20.2547 36.1036 20.9724 35.2773 22.7295C35.2773 22.7295 34.3987 24.9912 34.1072 26.3483L33.8418 27.4399C33.8418 27.4399 35.997 27.2268 36.6363 29.1689L38.1803 23.395L39.5896 17.9146C39.5896 17.9146 39.9615 15.679 40.0158 14.5351C40.0681 13.3912 40.1224 12.3256 42.0122 11.236C43.9019 10.1444 46.1898 10.0659 47.6252 11.2883C49.0627 12.5126 49.515 13.2444 52.0421 21.7987C52.0421 21.7987 52.6814 19.3018 52.9207 17.4703C53.1599 15.6388 53.0272 15.1342 53.0272 14.2295C53.0272 13.3248 53.3207 11.435 55.2085 10.7435C57.0983 10.0519 58.8272 10.078 60.4778 11.3285C62.1263 12.579 61.861 14.9211 61.8348 15.3453C61.8087 15.7715 61.0367 19.1972 61.0367 19.1972C61.0367 19.1972 64.3901 16.3827 69.1527 17.3416C69.1527 17.3416 67.848 15.878 67.5826 14.2556C67.3172 12.6332 67.3434 11.3546 67.9827 9.89305C68.622 8.42947 70.6163 6.53968 72.4257 6.24817C72.4257 6.24817 73.252 3.77335 76.151 1.85743C79.05 -0.0584942 83.3885 0.313432 85.3044 1.43122C87.2203 2.54901 88.6035 3.47983 89.854 6.19389C89.854 6.19389 92.3288 6.88547 93.6315 8.85568C94.9363 10.8239 95.1474 13.2203 94.3774 15.1885C93.6054 17.1567 92.2745 18.0614 92.2745 18.0614C92.2745 18.0614 92.4092 18.3669 92.381 18.6605C92.381 18.6605 93.6979 17.9146 95.0971 17.5286C96.4943 17.1426 98.1851 17.0099 99.8357 17.3818C101.486 17.7538 102.351 18.767 102.351 18.767C102.351 18.767 102.503 18.5398 102.904 18.2785C103.302 18.0171 103.907 17.7417 105.475 17.3577C107.043 16.9717 108.762 17.0823 110.04 18.4996C110.04 18.4996 113.066 15.9002 115.871 17.8543C115.871 17.8543 115.746 16.9878 116.174 16.1776C116.6 15.3654 117.66 14.7482 117.66 14.7482L122.073 11.5999C122.073 11.5999 123.187 10.5685 124.877 10.9405C126.568 11.3124 127.503 12.5347 127.847 13.4012C128.191 14.2677 128.136 15.868 127.366 16.7586C126.596 17.6492 125.593 18.6263 123.323 19.6435C123.323 19.6435 123.542 20.4558 123.502 20.703C123.502 20.703 124.218 19.7823 125.784 18.7228C127.352 17.6633 130.336 16.441 133.333 17.5688C133.333 17.5688 134.708 16.9496 136.427 17.2934C138.146 17.6372 138.848 18.0493 139.453 18.765C140.058 19.4807 140.251 20.6769 140.016 21.5293C139.783 22.3817 139.3 22.9446 138.612 25.4617L138.104 27.4681C138.104 27.4681 139.3 27.261 140.207 28.1134C141.113 28.9658 141.087 29.8182 141.128 30.2726C141.128 30.2726 142.929 30.6305 143.671 32.3212C144.413 34.012 144.111 35.4152 143.464 36.4607C142.818 37.5061 141.512 38.3022 139.903 38.2479C138.295 38.1936 137.056 37.0517 136.948 36.7622C136.948 36.7622 135.462 37.876 133.717 37.9303C131.972 37.9845 130.322 37.2146 129.566 36.0063C129.566 36.0063 128.412 37.1884 126.443 37.7654C124.477 38.3424 122.195 37.7654 120.861 36.4586C120.861 36.4586 120.201 37.2427 119.485 37.5322C118.77 37.8217 116.9 38.3424 115.334 37.5865C113.766 36.8306 112.845 35.3871 112.626 34.0522C112.407 32.7193 112.736 31.0969 112.845 30.4354C112.956 29.776 113.34 27.4661 113.34 27.4661C113.34 27.4661 112.612 27.7133 111.635 27.2871C111.635 27.2871 110.439 28.7849 109.737 30.5319C109.035 32.279 108.671 33.0349 108.05 34.6151C107.427 36.1973 106.81 36.8426 105.833 37.3935C104.856 37.9443 103.537 37.9705 102.534 37.9303C102.534 37.9303 100.306 37.9845 99.3029 36.5551C99.3029 36.5551 96.9648 37.8056 94.2165 37.8619C91.4663 37.9162 90.242 37.5041 89.1021 36.9271C87.9601 36.3501 86.9167 35.3328 86.2412 33.8753C85.5678 32.4177 85.6361 30.4797 85.6361 30.4797L82.8034 35.0172L81.0705 37.7533C81.0705 37.7533 80.4653 38.839 79.4621 39.2531C79.4621 39.2531 78.8168 39.5285 77.4537 39.5145H75.8313C75.8313 39.5145 74.9789 39.5004 74.1265 38.841C73.2741 38.1816 73.0952 36.8064 73.0952 36.8064L72.3392 32.8339C72.3392 32.8339 72.0397 33.8652 71.1792 34.8423C70.3188 35.8193 68.7909 36.6717 67.5967 37.0698C66.4005 37.4679 64.4343 37.9906 62.84 37.8941C61.2458 37.7976 59.9933 37.6749 58.4674 36.905C58.4674 36.905 57.3958 36.2174 56.7766 35.572C56.7766 35.572 56.2539 36.8366 55.4437 37.2487C54.6315 37.6609 54.0143 37.7996 53.0654 37.9222C52.1165 38.0469 51.3746 38.0187 51.3746 38.0187C51.3746 38.0187 50.3855 38.1414 49.3401 37.2487C48.2947 36.3541 47.3739 33.6742 47.3739 33.6742L45.3253 28.5034C45.3253 28.5034 45.078 29.6715 44.9273 30.2505C44.7765 30.8275 44.6116 32.2991 44.5975 32.8902C44.5835 33.4812 44.6518 34.3055 44.5975 34.7598C44.5433 35.2142 44.3362 36.34 43.6627 36.8627C42.9892 37.3854 42.2715 37.8398 40.5888 37.9926C38.9081 38.1454 37.4405 37.5945 36.5539 36.5873C35.6673 35.5781 35.7598 33.6521 35.7598 33.6521C35.7598 33.6521 34.262 36.1591 32.2134 37.0758C32.2134 37.0758 30.6855 38.0529 28.6972 37.9323C26.7109 37.8096 25.3036 36.1289 25.3036 36.1289C25.3036 36.1289 22.9796 37.872 21.2386 37.9624C19.4955 38.0549 18.1285 37.7735 16.7614 36.6356C16.7614 36.6356 15.5471 37.6186 13.987 37.8116C12.4269 38.0046 12.1756 37.9845 10.5974 38.0047C9.01726 38.0248 4.83761 37.9845 4.83761 37.9845C4.83761 37.9845 3.54693 37.9463 2.66034 37.3111C2.65028 37.293 0.607704 36.0988 0.955506 32.9947Z" fill="white"/>
</g>
<mask id="mask1_82_1117" style="mask-type:luminance" maskUnits="userSpaceOnUse" x="0" y="0" width="145" height="40">
<path d="M144.101 0.5H0.915283V39.5H144.101V0.5Z" fill="white"/>
</mask>
<g mask="url(#mask1_82_1117)">
<path d="M37.9993 32.1198L40.3796 23.1815C40.3796 23.1815 41.3768 19.4683 41.6583 18.0369C41.9377 16.6055 42.1106 14.008 42.1106 14.008C42.1106 14.008 42.0121 13.4029 43.6003 12.8038C45.1886 12.2047 46.4028 12.4902 47.0844 13.801C47.7659 15.1117 48.2042 15.9662 49.2978 19.8925C50.3915 23.8188 52.4823 28.9534 52.4823 28.9534L54.5209 20.4534C54.5209 20.4534 55.13 17.6107 55.1321 15.8918C55.1341 14.1729 54.9793 13.1677 55.9664 12.6832C57.046 12.1524 58.206 12.1765 59.1368 12.9365C60.0656 13.6944 59.8726 15.1801 59.3861 17.1402C58.8996 19.0984 55.2909 33.4547 55.2909 33.4547C55.2909 33.4547 54.9692 34.8218 54.4807 35.3666C53.9922 35.9115 51.5274 35.9477 51.5274 35.9477C51.5274 35.9477 50.7514 36.199 50.0879 34.8238C49.4245 33.4487 44.7583 21.4325 44.7583 21.4325L42.8444 29.9908C42.8444 29.9908 42.376 32.1037 42.5167 34.092C42.6574 36.0803 40.9225 35.8632 40.3414 35.9095C39.4448 35.9798 38.0476 35.6984 37.9088 34.7635C37.7701 33.8307 37.7842 33.3603 37.9993 32.1198Z" fill="#FF2A0C"/>
</g>
<mask id="mask2_82_1117" style="mask-type:luminance" maskUnits="userSpaceOnUse" x="0" y="0" width="145" height="40">
<path d="M144.101 0.5H0.915283V39.5H144.101V0.5Z" fill="white"/>
</mask>
<g mask="url(#mask2_82_1117)">
<path d="M118.287 16.8025C118.287 16.8025 121.43 14.7378 123.458 13.1295C124.524 12.2851 127.352 14.2071 125.173 16.1029C122.994 17.9987 120.471 18.4209 119.51 18.3164C118.551 18.2138 117.244 17.6992 118.287 16.8025Z" fill="#FF2A0C"/>
</g>
<mask id="mask3_82_1117" style="mask-type:luminance" maskUnits="userSpaceOnUse" x="0" y="0" width="145" height="40">
<path d="M144.101 0.5H0.915283V39.5H144.101V0.5Z" fill="white"/>
</mask>
<g mask="url(#mask3_82_1117)">
<path d="M118.86 19.2148H120.014C120.014 19.2148 121.721 19.243 121.385 21.5027C121.049 23.7624 119.419 34.7674 119.419 34.7674C119.419 34.7674 119.258 35.9133 117.177 35.9133C115.794 35.9133 114.222 34.7614 114.664 32.0312C115.081 29.4619 116.345 22.2385 116.345 22.2385C116.345 22.2385 116.641 19.2148 118.86 19.2148Z" fill="#FF2A0C"/>
</g>
<mask id="mask4_82_1117" style="mask-type:luminance" maskUnits="userSpaceOnUse" x="0" y="0" width="145" height="40">
<path d="M144.101 0.5H0.915283V39.5H144.101V0.5Z" fill="white"/>
</mask>
<g mask="url(#mask4_82_1117)">
<path d="M68.4109 31.1425C68.0309 31.438 67.6269 31.7094 67.1604 31.9547C66.4106 32.3487 65.5642 32.596 64.6253 32.6925C63.6885 32.8031 62.836 32.3708 62.3415 31.5888C62.0359 31.1063 62.0922 30.654 62.1103 30.2478C62.1967 29.7231 64.0946 28.9371 64.573 28.7742C66.9654 27.8916 71.0908 25.6701 71.1652 22.6324C71.2054 20.1516 69.4925 19.2428 67.2429 19.2368C64.366 19.2449 61.9032 20.7004 60.0838 22.8536C58.0392 25.0952 57.0099 28.0223 57.1466 31.05C57.3315 34.4979 59.74 35.8247 62.9305 35.8247C64.5288 35.8267 66.111 35.497 67.5645 34.8296C68.437 34.4556 69.2573 33.9148 69.8584 33.169C70.4052 32.4533 70.558 31.7798 70.3087 31.1445C69.8524 29.9905 68.4109 31.1425 68.4109 31.1425ZM65.8175 22.0313C66.6015 22.0534 66.6397 22.6686 66.4648 23.2979C66.1592 24.5604 65.1862 25.3063 64.1046 25.9114C63.6281 26.1506 63.1778 26.3818 62.7737 26.6653C63.1718 25.1253 64.1448 22.0695 65.8175 22.0313Z" fill="#FF2A0C"/>
</g>
<mask id="mask5_82_1117" style="mask-type:luminance" maskUnits="userSpaceOnUse" x="0" y="0" width="145" height="40">
<path d="M144.101 0.5H0.915283V39.5H144.101V0.5Z" fill="white"/>
</mask>
<g mask="url(#mask5_82_1117)">
<path d="M98.9712 31.1425C98.5913 31.438 98.1872 31.7094 97.7207 31.9547C96.9709 32.3487 96.1245 32.596 95.1856 32.6925C94.2488 32.8031 93.3963 32.3708 92.9018 31.5888C92.5962 31.1063 92.6525 30.654 92.6706 30.2478C92.757 29.7231 94.6549 28.9371 95.1333 28.7742C97.5257 27.8916 101.651 25.6701 101.725 22.6324C101.766 20.1516 100.053 19.2428 97.8032 19.2368C94.9263 19.2449 92.4635 20.7004 90.6441 22.8536C88.5995 25.0952 87.5702 28.0223 87.7069 31.05C87.8918 34.4979 90.3003 35.8247 93.4908 35.8247C95.0891 35.8267 96.6713 35.497 98.1248 34.8296C98.9974 34.4556 99.8176 33.9148 100.419 33.169C100.966 32.4533 101.118 31.7798 100.869 31.1445C100.413 29.9905 98.9712 31.1425 98.9712 31.1425ZM96.3778 22.0313C97.1618 22.0534 97.2 22.6686 97.0251 23.2979C96.7196 24.5604 95.7465 25.3063 94.6649 25.9114C94.1884 26.1506 93.7381 26.3818 93.334 26.6653C93.7321 25.1253 94.7051 22.0695 96.3778 22.0313Z" fill="#FF2A0C"/>
</g>
<mask id="mask6_82_1117" style="mask-type:luminance" maskUnits="userSpaceOnUse" x="0" y="0" width="145" height="40">
<path d="M144.101 0.5H0.915283V39.5H144.101V0.5Z" fill="white"/>
</mask>
<g mask="url(#mask6_82_1117)">
<path d="M34.1776 29.5244C33.5001 29.5183 32.4808 30.6824 32.1149 31.0824C31.8395 31.3558 31.5882 31.5589 31.2725 31.768C31.2243 31.6373 31.1921 31.4564 31.1861 31.2131C31.2102 29.0821 32.2958 24.4079 33.4639 21.6476C33.4639 21.6456 33.4659 21.6456 33.4659 21.6435C33.5363 21.4787 33.6066 21.3179 33.677 21.1671C33.9806 20.3307 33.4619 19.8603 33.102 19.7176C32.4486 19.4442 31.7952 19.2713 30.9871 19.2672C30.3256 19.2692 29.6702 19.4683 29.1515 19.8824C28.3293 19.3738 27.3462 19.2049 26.3912 19.2089C20.9812 19.3597 17.3705 25.9921 16.9684 30.8774C16.9664 30.8774 16.9644 30.8754 16.9624 30.8754C16.8478 31.581 16.8478 32.4998 17.1876 33.4728C17.6057 34.8741 18.5868 35.8712 20.4666 35.9074H20.7943C23.1002 35.8009 25.0583 33.5472 26.2927 31.8142C26.2867 32.0193 26.2827 32.2163 26.2827 32.4013C26.2968 34.3494 27.1472 35.8833 29.2862 35.8773C31.6887 35.7888 34.6963 32.6224 34.7787 30.2461C34.7807 29.8782 34.6058 29.5244 34.1776 29.5244ZM26.6265 26.3017C26.0535 27.4255 25.4021 28.5192 24.6784 29.5847C24.4251 29.9626 23.0741 31.967 22.4931 32.0052C22.0528 32.0052 22.0266 31.2433 22.0106 30.9698C22.0246 29.7455 22.2418 28.4528 22.666 27.0897C23.0721 25.781 24.3929 22.3874 26.1178 22.2627C26.92 22.2547 27.6277 22.691 27.9091 23.4509C27.5935 24.2933 27.1653 25.2422 26.6265 26.3017Z" fill="#FF2A0C"/>
</g>
<mask id="mask7_82_1117" style="mask-type:luminance" maskUnits="userSpaceOnUse" x="0" y="0" width="145" height="40">
<path d="M144.101 0.5H0.915283V39.5H144.101V0.5Z" fill="white"/>
</mask>
<g mask="url(#mask7_82_1117)">
<path d="M138.441 29.5244C137.764 29.5183 136.745 30.6824 136.379 31.0824C136.103 31.3558 135.852 31.5589 135.536 31.768C135.488 31.6373 135.456 31.4564 135.45 31.2131C135.474 29.0821 136.56 24.4079 137.728 21.6476C137.728 21.6456 137.73 21.6456 137.73 21.6435C137.8 21.4787 137.871 21.3179 137.941 21.1671C138.244 20.3307 137.726 19.8603 137.366 19.7176C136.713 19.4442 136.059 19.2713 135.251 19.2672C134.59 19.2692 133.934 19.4683 133.415 19.8824C132.593 19.3738 131.61 19.2049 130.655 19.2089C125.245 19.3597 121.632 25.9921 121.232 30.8774C121.23 30.8774 121.228 30.8754 121.226 30.8754C121.112 31.581 121.112 32.4998 121.451 33.4728C121.87 34.8741 122.851 35.8712 124.73 35.9074H125.058C127.364 35.8009 129.322 33.5472 130.557 31.8142C130.551 32.0193 130.547 32.2163 130.547 32.4013C130.561 34.3494 131.411 35.8833 133.55 35.8773C135.953 35.7888 138.96 32.6224 139.043 30.2461C139.045 29.8782 138.87 29.5244 138.441 29.5244ZM130.89 26.3017C130.317 27.4255 129.666 28.5192 128.942 29.5847C128.689 29.9626 127.338 31.967 126.757 32.0052C126.317 32.0052 126.291 31.2433 126.274 30.9698C126.289 29.7455 126.506 28.4528 126.93 27.0897C127.336 25.781 128.657 22.3874 130.382 22.2627C131.184 22.2547 131.892 22.691 132.173 23.4509C131.857 24.2933 131.429 25.2422 130.89 26.3017Z" fill="#FF2A0C"/>
</g>
<mask id="mask8_82_1117" style="mask-type:luminance" maskUnits="userSpaceOnUse" x="0" y="0" width="145" height="40">
<path d="M144.101 0.5H0.915283V39.5H144.101V0.5Z" fill="white"/>
</mask>
<g mask="url(#mask8_82_1117)">
<path d="M15.9873 31.4485C15.9672 31.4364 15.9471 31.4243 15.9269 31.4123C15.7038 31.3138 15.161 31.3741 14.6483 31.4625C14.2985 31.557 13.9407 31.6314 13.5768 31.6917C13.5567 31.6978 13.5446 31.6998 13.5446 31.6998L13.5486 31.6957C12.7183 31.8304 11.874 31.8867 11.112 31.8887C10.1752 31.8988 9.15789 31.8867 8.24717 31.6395C8.24114 31.5892 8.23913 31.5329 8.23913 31.4646C8.27733 27.2407 10.4064 19.6473 11.8559 15.6406C12.7505 12.9607 10.6838 12.5144 10.5049 12.4822C10.34 12.4581 10.1651 12.44 9.98015 12.43C9.37501 12.3837 8.76385 12.5466 8.25924 12.8803C7.72447 13.2703 7.31635 13.7548 7.11732 14.3961C5.44265 19.5207 4.23439 24.9367 3.36589 30.2543C3.12263 31.744 3 32.8156 2.99195 33.4689C2.93365 35.0833 3.58905 35.9216 5.27578 35.9377C6.06185 35.9236 6.82581 35.9156 7.55961 35.9136C8.2914 35.9116 9.05536 35.9096 9.8555 35.9096C12.9093 35.9558 15.5329 36.0664 16.5059 33.6016C16.8678 32.3129 16.4175 31.7199 15.9873 31.4485Z" fill="#FF2A0C"/>
</g>
<mask id="mask9_82_1117" style="mask-type:luminance" maskUnits="userSpaceOnUse" x="0" y="0" width="145" height="40">
<path d="M144.101 0.5H0.915283V39.5H144.101V0.5Z" fill="white"/>
</mask>
<g mask="url(#mask9_82_1117)">
<path d="M106.967 19.2391C106.967 19.2391 106.299 19.1808 104.327 19.8543C103.786 20.0473 103.525 20.5982 103.661 21.1028C103.772 21.4828 103.806 21.8467 103.804 22.3955C103.81 25.6986 102.164 30.8332 100.871 34.3273C100.871 34.3293 100.497 35.4732 101.595 35.7265C101.677 35.7406 101.76 35.7527 101.842 35.7647C101.846 35.7647 101.848 35.7668 101.852 35.7668C102.329 35.8371 102.807 35.8834 103.287 35.8834C104.709 35.8813 105.581 35.3667 106.068 34.0137C106.782 32.1922 109.311 24.9668 111.719 24.8663C111.985 24.8683 112.192 25.0513 112.362 25.2744C112.921 25.7991 113.663 24.806 113.663 24.806C114.522 23.7123 115.229 22.4759 115.253 21.0566C115.268 19.9709 114.741 19.2271 113.591 19.213H113.516H113.436C111.464 19.2934 109.707 21.6858 108.687 23.1916C108.85 22.4136 108.935 21.7341 108.943 21.1651C108.925 19.983 108.129 19.2472 106.967 19.2391Z" fill="#FF2A0C"/>
</g>
<mask id="mask10_82_1117" style="mask-type:luminance" maskUnits="userSpaceOnUse" x="0" y="0" width="145" height="40">
<path d="M144.101 0.5H0.915283V39.5H144.101V0.5Z" fill="white"/>
</mask>
<g mask="url(#mask10_82_1117)">
<path d="M78.7605 37.2723C78.6016 37.3748 78.4187 37.4271 78.2116 37.4271H75.96C75.5277 37.4271 75.2704 37.212 75.188 36.7798L71.9331 19.6691C71.911 19.5244 71.903 19.4279 71.903 19.3756C71.903 19.1082 71.9834 18.8991 72.1422 18.7504C72.301 18.6016 72.5141 18.5272 72.7835 18.5272H76.8727C77.2949 18.5272 77.5361 18.7584 77.5985 19.2208L78.863 28.8487L84.2167 19.1746C84.4419 18.7423 84.7817 18.5272 85.234 18.5272H89.8941C90.1816 18.5272 90.3264 18.6257 90.3264 18.8207C90.3264 18.9956 90.2279 19.2329 90.0329 19.5304L79.2329 36.7798C79.0761 37.0049 78.9193 37.1698 78.7605 37.2723Z" fill="#FBB71D"/>
</g>
<mask id="mask11_82_1117" style="mask-type:luminance" maskUnits="userSpaceOnUse" x="0" y="0" width="145" height="40">
<path d="M144.101 0.5H0.915283V39.5H144.101V0.5Z" fill="white"/>
</mask>
<g mask="url(#mask11_82_1117)">
<path d="M88.3059 8.05302C87.4394 4.89466 84.5504 2.57263 81.1166 2.57263C77.6829 2.57263 74.7939 4.89466 73.9274 8.05101C71.4405 8.1857 69.4623 10.2383 69.4623 12.7594C69.4623 15.3669 71.5772 17.4819 74.1847 17.4819C75.3387 17.4819 76.3942 17.0677 77.2144 16.3801C78.3483 17.0778 79.6852 17.4819 81.1146 17.4819C82.542 17.4819 83.8769 17.0798 85.0108 16.3842C85.4209 16.7259 85.8894 17.0014 86.4 17.1903C86.9107 17.3793 87.4615 17.4819 88.0365 17.4819C90.644 17.4819 92.7589 15.3689 92.7589 12.7594C92.761 10.2424 90.7887 8.19174 88.3059 8.05302Z" fill="#FE8A16"/>
</g>
<mask id="mask12_82_1117" style="mask-type:luminance" maskUnits="userSpaceOnUse" x="0" y="0" width="145" height="40">
<path d="M144.101 0.5H0.915283V39.5H144.101V0.5Z" fill="white"/>
</mask>
<g mask="url(#mask12_82_1117)">
<path d="M88.1652 8.97601C88.5612 8.88956 89.0015 8.89559 89.4498 8.98606C90.6661 9.23334 92.2403 10.9482 92.1157 12.1384C92.0996 12.2912 92.0272 12.4299 91.9528 12.5626C92.1659 11.5413 90.632 9.78218 89.3352 9.49469C88.8869 9.39417 88.4446 9.4002 88.0486 9.49268L88.1652 8.97601Z" fill="white"/>
</g>
<mask id="mask13_82_1117" style="mask-type:luminance" maskUnits="userSpaceOnUse" x="0" y="0" width="145" height="40">
<path d="M144.101 0.5H0.915283V39.5H144.101V0.5Z" fill="white"/>
</mask>
<g mask="url(#mask13_82_1117)">
<path d="M82.3129 4.19691C79.5626 3.02886 76.3862 4.31151 75.2181 7.06175C74.9467 7.70106 74.812 8.36048 74.7919 9.01587C74.3376 8.86308 73.845 8.80679 73.3364 8.86911C71.517 9.09227 70.2243 10.7488 70.4474 12.5683C70.4796 12.8276 70.5419 13.0769 70.6284 13.3141C70.4293 11.557 71.6838 9.96278 73.4429 9.74565C73.9596 9.68132 74.4602 9.74565 74.9186 9.9085L76.1771 10.4433C76.0424 9.51848 76.1489 8.54745 76.541 7.62668C77.6708 4.96489 80.7327 3.71643 83.3985 4.81813C83.0688 4.57286 82.7069 4.36378 82.3129 4.19691Z" fill="white"/>
</g>
<mask id="mask14_82_1117" style="mask-type:luminance" maskUnits="userSpaceOnUse" x="0" y="0" width="145" height="40">
<path d="M144.101 0.5H0.915283V39.5H144.101V0.5Z" fill="white"/>
</mask>
<g mask="url(#mask14_82_1117)">
<path fill-rule="evenodd" clip-rule="evenodd" d="M140.369 34.5765H140.575L141.063 35.4751H141.592L141.055 34.5403C141.33 34.5182 141.564 34.3775 141.564 33.9834C141.564 33.4949 141.242 33.334 140.705 33.334H139.917V35.4751H140.367V34.5765H140.369ZM140.369 34.2146V33.702H140.681C140.856 33.702 141.085 33.714 141.085 33.9372C141.085 34.1684 140.965 34.2146 140.764 34.2146H140.369ZM142.645 34.4056C142.645 33.1491 141.721 32.4193 140.691 32.4193C139.658 32.4193 138.733 33.1491 138.733 34.4056C138.733 35.6641 139.658 36.3959 140.691 36.3959C141.721 36.3959 142.645 35.6641 142.645 34.4056ZM142.086 34.4056C142.086 35.3183 141.445 35.9355 140.693 35.9355V35.9315C139.919 35.9355 139.298 35.3183 139.298 34.4056C139.298 33.4929 139.919 32.8837 140.693 32.8837C141.445 32.8837 142.086 33.4949 142.086 34.4056Z" fill="#FF2A0C"/>
</g>
</g>
<defs>
<clipPath id="clip0_82_1117">
<rect width="143.186" height="39" fill="white" transform="translate(0.915283 0.5)"/>
</clipPath>
</defs>
</svg>
