<svg width="157" height="40" viewBox="0 0 157 40" fill="none" xmlns="http://www.w3.org/2000/svg">
<g style="mix-blend-mode:luminosity" clip-path="url(#clip0_82_1179)">
<path d="M42.6166 0.549069C44.0858 0.36104 45.5743 0.697526 46.8198 1.49925C48.4384 2.54557 49.5485 4.21231 50.2997 5.95729C52.105 10.1515 52.788 14.7403 52.9099 19.2789C53.0027 22.0042 52.7545 24.7296 52.3353 27.4203C52.1609 28.3984 51.9731 29.4078 51.441 30.263C50.9637 31.0455 50.2214 31.7162 49.307 31.9241C48.3356 32.1477 47.2166 31.8012 46.6566 30.9505C45.9087 29.8527 45.9579 28.4554 46.073 27.19C46.3324 24.5965 46.6622 21.9964 46.5861 19.3839C46.5414 18.3779 46.4509 17.3383 45.9657 16.4395C45.4482 15.4647 44.2453 14.8667 43.1621 15.1618C42.3338 15.3786 41.6418 15.9286 41.0594 16.5356C39.8969 17.772 39.1032 19.2945 38.4436 20.845C37.3884 23.2808 36.5958 25.8184 35.801 28.347C35.2555 30.0316 34.8251 31.7777 33.9353 33.3259C33.1181 34.8015 31.9131 36.0859 30.4051 36.864C28.8893 37.6621 27.1633 37.9706 25.4697 38.0489C23.9818 38.141 22.4935 37.8757 21.1291 37.2753C19.184 36.4056 17.6212 34.8339 16.5313 33.0275C14.7941 30.121 13.1486 27.1631 11.4551 24.2321C11.0079 23.4764 10.5328 22.7163 9.89006 22.1082C9.50887 21.7493 9.01924 21.4475 8.47708 21.4688C7.93492 21.49 7.35251 21.7247 7.00486 22.1741C6.63372 22.6537 6.50517 23.2708 6.44592 23.8621C6.33414 25.1365 6.57112 26.4097 6.86177 27.6472C7.32456 29.5744 7.96734 31.4479 8.53074 33.3483C8.84486 34.4852 9.22381 35.6321 9.22158 36.8237C9.23052 37.7605 8.8102 38.7532 7.95616 39.2104C6.79358 39.8095 5.20845 39.4652 4.41588 38.4156C3.40981 37.1457 2.92689 35.5751 2.38473 34.0738C1.24115 30.6554 0.383753 27.114 0.149002 23.5089C0.00268306 20.9989 0.188362 18.4806 0.701226 16.0192C1.16738 13.7432 1.83809 11.4728 3.03309 9.46514C3.92738 7.95715 5.16932 6.60677 6.75334 5.8142C8.52023 4.92865 10.5631 4.7682 12.4466 5.36706C14.044 5.90699 15.2625 7.14222 16.3781 8.35287C18.0985 10.4489 19.5272 12.764 20.9614 15.06C21.8735 16.6083 23.0261 18.123 24.6716 18.9402C25.3836 19.2975 26.1784 19.4578 26.9733 19.4043C27.7683 19.3509 28.5344 19.0856 29.1922 18.6361C30.2273 17.9151 30.869 16.7748 31.3296 15.629C32.6475 12.4219 33.8615 9.16556 35.374 6.04225C36.787 3.25877 39.4419 0.93585 42.6166 0.549069Z" fill="#019DF4"/>
<path d="M113.034 11.1678C113.62 11.0314 114.231 11.0437 114.812 11.2036C115.345 11.3623 115.666 11.9067 115.677 12.4444C115.709 13.0313 115.74 13.7366 115.269 14.1726C114.803 14.5907 114.129 14.5616 113.545 14.546C113.019 14.5348 112.427 14.3224 112.204 13.8093C111.997 13.313 112.026 12.7518 112.092 12.2286C112.124 11.9774 112.23 11.7415 112.399 11.5522C112.567 11.3628 112.788 11.2288 113.034 11.1678Z" fill="#019DF4"/>
<path d="M68.6586 27.7534C68.6586 22.4861 68.6586 17.2183 68.6586 11.9502H71.5058C73.1714 14.8823 74.8169 17.8279 76.4937 20.7545C78.1995 17.819 79.9222 14.8924 81.6247 11.9547C82.5514 11.9457 83.4781 11.9547 84.4048 11.9547C84.4048 17.222 84.4048 22.4894 84.4048 27.7568H81.0926C81.0926 24.7378 81.0926 21.7196 81.0926 18.7021C80.0082 20.5253 78.9161 22.343 77.8351 24.1684C76.9065 24.1684 75.9783 24.1684 75.0505 24.1684C73.9326 22.312 72.8129 20.456 71.6913 18.6004C71.6913 21.6559 71.6913 24.7113 71.6913 27.7668L68.6586 27.7534Z" fill="#019DF4"/>
<path d="M129.572 13.9143C130.649 13.6052 131.762 13.4409 132.882 13.4258V16.4339H135.813V18.5981H132.88V24.0701C132.88 24.5821 132.972 25.2427 133.522 25.454C134.344 25.7335 135.222 25.5255 136.062 25.454C136.104 26.2365 136.139 27.019 136.174 27.8015C135.02 28.0266 133.844 28.1118 132.67 28.0553C131.819 27.9949 130.903 27.7657 130.322 27.0995C129.713 26.3952 129.58 25.4227 129.563 24.5284C129.563 22.5535 129.563 20.5786 129.563 18.6037H127.648V16.7827C128.285 16.6709 128.921 16.5513 129.56 16.4384C129.575 15.5911 129.57 14.7549 129.572 13.9143Z" fill="#019DF4"/>
<path d="M91.0337 16.2227C92.7775 15.9645 94.7226 16.0998 96.1825 17.1875C97.4323 18.1108 98.0259 19.6713 98.1511 21.1805C98.2931 22.9534 98.0829 24.9029 96.908 26.3226C95.8584 27.6015 94.1391 28.0933 92.5372 28.0833C90.9957 28.1168 89.339 27.7356 88.2278 26.6032C87.1167 25.4708 86.7098 23.8376 86.684 22.2983C86.6539 20.74 86.9523 19.0722 87.9886 17.8526C88.7499 16.9438 89.8789 16.4128 91.0337 16.2239M91.5713 18.7759C90.9554 18.9772 90.5418 19.5495 90.3708 20.1531C90.1159 21.0228 90.1081 21.9417 90.1617 22.8438C90.2266 23.6096 90.3652 24.4491 90.9286 25.0203C91.4037 25.4965 92.1213 25.5983 92.7641 25.5357C93.0345 25.5191 93.2981 25.4437 93.5363 25.3147C93.7746 25.1857 93.9818 25.0063 94.1436 24.7889C94.5661 24.1909 94.6701 23.4385 94.7215 22.7265C94.7528 21.7964 94.7584 20.8339 94.4331 19.9486C94.2419 19.4165 93.8328 18.9425 93.2861 18.7692C92.7275 18.595 92.1288 18.5969 91.5713 18.7748V18.7759Z" fill="#019DF4"/>
<path d="M118.55 17.3394C119.364 16.5569 120.504 16.2517 121.599 16.15C123.183 16.0297 124.774 16.2289 126.279 16.7358C126.188 17.5473 126.108 18.36 126.021 19.1716C124.873 18.8602 123.691 18.6901 122.501 18.6652C121.986 18.6764 121.427 18.6942 120.992 19.0005C120.908 19.0678 120.839 19.153 120.791 19.25C120.744 19.3469 120.718 19.4533 120.716 19.5614C120.714 19.6695 120.737 19.7766 120.781 19.8751C120.826 19.9735 120.892 20.0608 120.975 20.1307C121.343 20.4213 121.822 20.5097 122.27 20.6103C123.408 20.845 124.618 20.9847 125.609 21.6432C125.928 21.8557 126.2 22.1307 126.409 22.4517C126.618 22.7726 126.76 23.1327 126.825 23.51C127.03 24.6212 126.857 25.8899 126.043 26.7306C125.171 27.6472 123.865 27.9524 122.648 28.0496C121.015 28.1478 119.377 27.9482 117.815 27.4605C117.9 26.6408 117.985 25.821 118.07 25.0012C119.256 25.3372 120.48 25.5161 121.712 25.5333C122.28 25.5188 122.895 25.5199 123.389 25.208C123.822 24.9275 123.876 24.212 123.454 23.8968C122.952 23.5312 122.31 23.4709 121.72 23.3501C120.644 23.1512 119.484 22.9734 118.612 22.2658C117.886 21.6912 117.572 20.7433 117.583 19.8412C117.552 18.9212 117.872 17.9743 118.55 17.3394Z" fill="#019DF4"/>
<path d="M138.481 16.5255C139.953 16.2285 141.452 16.0921 142.953 16.1186C143.978 16.1655 145.042 16.3209 145.935 16.8609C146.624 17.2689 147.066 17.9966 147.263 18.7612C147.529 19.7326 147.429 20.7477 147.449 21.7414C147.449 23.7469 147.449 25.752 147.449 27.7567H144.825C144.744 27.5282 144.65 27.3043 144.545 27.0859C143.693 27.6263 142.727 27.9605 141.723 28.0618C140.669 28.149 139.542 28.0171 138.648 27.4112C138.28 27.1561 137.968 26.8289 137.731 26.4496C137.494 26.0703 137.336 25.6467 137.267 25.2046C137.069 24.1091 137.247 22.8839 137.983 22.0131C138.489 21.3971 139.264 21.0797 140.03 20.9332C141.384 20.6739 142.768 20.7823 144.139 20.7588C144.139 20.2122 144.172 19.5728 143.751 19.1569C143.266 18.7176 142.567 18.6886 141.948 18.6707C140.842 18.6682 139.738 18.7681 138.65 18.9691C138.591 18.1568 138.537 17.3441 138.487 16.5311M141.393 22.9867C140.247 23.1913 140.184 25.1174 141.282 25.4382C142.223 25.7121 143.215 25.4483 144.137 25.2146C144.137 24.4426 144.137 23.6705 144.137 22.8984C143.219 22.9275 142.29 22.8045 141.388 22.9812L141.393 22.9867Z" fill="#019DF4"/>
<path d="M152.891 17.3385C154.008 16.4285 155.506 16.025 156.928 16.1714V19.0779C155.689 18.91 154.429 18.9729 153.212 19.2634C153.212 22.0954 153.212 24.925 153.212 27.7525H149.901C149.901 23.9801 149.901 20.2077 149.901 16.4353H152.777C152.817 16.7363 152.855 17.0374 152.891 17.3385Z" fill="#019DF4"/>
<path d="M98.9828 16.4363H102.551C103.401 19.0275 104.196 21.6377 105.067 24.2234C105.88 21.631 106.651 19.0264 107.462 16.4341C108.565 16.443 109.67 16.4341 110.773 16.4341C109.476 20.2072 108.176 23.9797 106.873 27.7513H103.023C101.677 23.9804 100.33 20.2087 98.9828 16.4363Z" fill="#019DF4"/>
<path d="M112.211 16.4362H115.519C115.524 20.2093 115.524 23.9821 115.519 27.7545H112.208C112.21 23.9821 112.211 20.2093 112.211 16.4362Z" fill="#019DF4"/>
</g>
<defs>
<clipPath id="clip0_82_1179">
<rect width="156.825" height="39" fill="white" transform="translate(0.100952 0.5)"/>
</clipPath>
</defs>
</svg>
