<svg width="100" height="40" viewBox="0 0 100 40" fill="none" xmlns="http://www.w3.org/2000/svg">
<g style="mix-blend-mode:luminosity" clip-path="url(#clip0_82_1193)">
<path d="M52.9348 5.87446C52.9348 4.94204 52.1792 4.18604 51.2464 4.18604C50.3137 4.18604 49.558 4.9417 49.558 5.87446C49.558 6.80723 50.3137 7.56289 51.2464 7.56289C52.1792 7.56289 52.9348 6.80723 52.9348 5.87446Z" stroke="#809FC9" stroke-width="0.141816" stroke-miterlimit="8.29"/>
<path d="M46.2453 26.2202C46.2282 26.2592 46.2104 26.2599 46.1915 26.2216C44.8083 23.4055 43.447 20.6318 42.108 17.9017C41.8219 17.319 41.9781 16.6497 42.6985 16.5291C42.7085 16.5271 42.7136 16.5212 42.7136 16.5113L42.7129 15.9245C42.7129 15.9112 42.7057 15.9046 42.6924 15.9046L36.7152 15.904C36.7012 15.904 36.694 15.9112 36.694 15.9252L36.6947 16.5106C36.6947 16.5212 36.6998 16.5271 36.7104 16.5277C37.6147 16.6243 38.2461 17.2951 38.6373 18.0857C40.5435 21.9359 42.4433 25.7752 44.3376 29.6049C44.3496 29.6306 44.3702 29.6433 44.3993 29.6433L45.1053 29.6447C45.1251 29.6447 45.1436 29.6334 45.1529 29.6155C45.6986 28.566 46.2634 27.4815 46.8492 26.3617C47.2517 25.5916 47.8114 24.6249 48.5284 23.4627C48.7952 23.029 49.0364 22.6224 49.2522 22.2418C49.9661 20.9836 50.6864 19.7381 51.4637 18.5365C52.4084 17.0758 53.4032 15.6878 54.7453 14.6793C55.6956 13.9648 56.8715 13.588 57.9177 14.2669C57.941 14.282 57.9653 14.2854 57.9913 14.2775C58.7381 14.0439 59.095 13.2273 59.0409 12.5011C58.9594 11.3912 58.1856 10.5883 57.063 10.4906C56.2306 10.4177 55.4996 10.6523 54.8693 11.1946C53.8468 12.0739 53.0312 13.2399 52.3166 14.4337C51.7929 15.3096 51.3486 16.1122 50.9831 16.8412C50.2295 18.3463 49.4635 19.846 48.6866 21.3399C48.0403 22.5827 47.4411 23.8679 46.8187 25.1055C46.6307 25.4796 46.4128 25.8406 46.246 26.2205" stroke="#809FC9" stroke-width="0.141816" stroke-miterlimit="8.29"/>
<path d="M27.3118 21.8701H35.5649C35.5875 21.8701 35.606 21.8516 35.6067 21.829C35.6714 18.0739 33.1886 15.3202 29.2804 15.7744C27.0477 16.034 25.3552 17.4782 24.556 19.5445C23.9939 20.9973 23.8277 22.5771 24.0579 24.284C24.4796 27.4194 26.5335 29.7374 29.7761 29.9275C31.6115 30.0354 33.2181 29.5613 34.4105 28.0853C34.8534 27.5365 35.2367 26.9251 35.5601 26.2492C35.5686 26.2314 35.5628 26.2109 35.5467 26.2002L35.2429 26.0009C35.2329 25.9937 35.2189 25.9957 35.211 26.006C34.4622 26.9491 33.4993 27.5417 32.3213 27.7838C31.0261 28.05 29.7514 27.74 28.8372 26.7966C27.6485 25.5696 27.2255 23.6681 27.2666 21.9146C27.2673 21.8855 27.2823 21.8708 27.3121 21.8708" stroke="#809FC9" stroke-width="0.141816" stroke-miterlimit="8.29"/>
<path d="M91.5529 21.87H99.821C99.8337 21.87 99.8402 21.8635 99.8402 21.8508C99.9275 18.2958 97.6465 15.4777 93.898 15.7387C90.8575 15.9501 88.9385 18.0872 88.3778 20.9876C87.6858 24.5703 88.9094 28.8902 92.9518 29.7815C93.6637 29.9384 94.4145 29.9809 95.2031 29.9079C97.518 29.6942 98.7927 28.262 99.7919 26.2779C99.8097 26.2416 99.8018 26.2125 99.7686 26.1906L99.5137 26.0224C99.4812 26.0012 99.4528 26.0053 99.4284 26.0351C98.5584 27.0959 97.4553 27.7009 96.1197 27.8485C94.7358 28.001 93.515 27.4625 92.7038 26.3567C91.8005 25.1253 91.4696 23.4988 91.5046 21.9169C91.5053 21.8858 91.5217 21.87 91.5529 21.87Z" stroke="#809FC9" stroke-width="0.141816" stroke-miterlimit="8.29"/>
<path d="M53.9557 18.1501C54.9477 18.1751 55.2991 18.8036 55.2978 19.7121C55.295 22.3699 55.295 24.9754 55.2978 27.5281C55.2991 28.4173 54.9549 29.0199 53.9515 29.051C53.9317 29.0517 53.9159 29.0682 53.9159 29.088L53.9146 29.6289C53.9146 29.6388 53.9197 29.644 53.9303 29.644H59.8352C59.8393 29.644 59.8417 29.6419 59.8417 29.6375V29.0719C59.8417 29.0593 59.8318 29.0493 59.8198 29.0493C59.1634 29.0401 58.7359 28.7832 58.5393 28.2793C58.4605 28.0772 58.4215 27.7384 58.4229 27.2643C58.4335 23.6727 58.4342 19.9536 58.4249 16.1091C58.4249 16.0941 58.4109 16.0841 58.3965 16.0886L53.9444 17.5143C53.9259 17.5208 53.9166 17.5335 53.9166 17.5527L53.9159 18.109C53.9159 18.136 53.9293 18.1494 53.9557 18.1501Z" stroke="#809FC9" stroke-width="0.141816" stroke-miterlimit="8.29"/>
<path d="M2.07552 18.9322L4.69431 24.3671C4.76042 24.5041 4.95773 24.4962 5.01288 24.3551L7.25145 18.6506C7.27542 18.5897 7.28776 18.5917 7.28776 18.6578C7.2857 20.3774 7.28365 22.1011 7.28125 23.8286C7.28056 24.153 7.09045 24.3226 6.71056 24.3376C6.702 24.3383 6.69789 24.3428 6.69857 24.3503L6.70268 24.5271C6.70337 24.5411 6.71056 24.5483 6.7246 24.5483H8.91555C8.93063 24.5483 8.93748 24.5411 8.93748 24.5271L8.93953 24.351C8.93953 24.3411 8.93439 24.3359 8.92446 24.3359C8.61788 24.338 8.35823 24.1626 8.35823 23.8454C8.36028 22.0583 8.35959 20.3713 8.35685 18.7846C8.35617 18.4304 8.56341 18.2642 8.91453 18.2375C8.92789 18.2361 8.93782 18.2255 8.93782 18.2118L8.9385 18.0501C8.9385 18.0402 8.93337 18.0351 8.92343 18.0351L7.31516 18.0337C7.2881 18.0337 7.2696 18.0464 7.25967 18.0714L5.29651 23.062C5.28863 23.0825 5.25952 23.0832 5.25027 23.0634L2.86201 18.07C2.85071 18.0467 2.83152 18.0344 2.80515 18.0344H1.15782C1.13213 18.0344 1.11946 18.0471 1.12014 18.0727L1.12151 18.2104C1.12151 18.231 1.13145 18.2409 1.15132 18.2416C1.40549 18.2522 1.62883 18.3495 1.82134 18.5324C1.83984 18.5503 1.84909 18.5722 1.84909 18.5979C1.84567 20.2884 1.84635 21.9179 1.85115 23.4864C1.8532 24.0557 1.59937 24.3438 1.01875 24.3352C1.00368 24.3352 0.996826 24.3424 0.996826 24.3572L0.999567 24.5319C1.00025 24.5425 1.00608 24.5483 1.01669 24.5483H3.06069C3.08707 24.5483 3.09974 24.5356 3.10043 24.5093L3.10317 24.3722C3.10385 24.3438 3.08981 24.3304 3.06206 24.3325C2.70238 24.3582 2.2324 24.2842 2.10395 23.8988C2.06079 23.7676 2.03921 23.6087 2.04023 23.4213C2.04743 21.9131 2.04811 20.4199 2.04229 18.9404C2.04229 18.9219 2.06798 18.9154 2.07552 18.9325" stroke="#80C0ED" stroke-width="0.141816" stroke-miterlimit="8.29"/>
<path d="M12.25 23.4359C11.8688 22.4813 11.4827 21.5105 11.0912 20.5246C11.0018 20.2982 11.0587 20.1485 11.2608 20.0755C11.2899 20.0649 11.3039 20.0444 11.3039 20.0139L11.3046 19.8995C11.3046 19.8645 11.2875 19.8477 11.2529 19.8477H9.26369C9.21984 19.8477 9.20203 19.869 9.21059 19.9125C9.21642 19.9395 9.21642 19.9663 9.21128 19.9933C9.20409 20.0283 9.2171 20.0515 9.24965 20.0642C9.62851 20.2153 9.89398 20.4801 10.0454 20.8589C10.5534 22.1315 11.0751 23.4332 11.6095 24.763C11.618 24.7849 11.6174 24.8068 11.6081 24.8291C11.4896 25.0987 10.7764 26.7607 10.3194 26.2753C10.2633 26.2157 10.2293 26.1404 10.216 26.0503C10.1629 25.6848 10.0039 25.3532 9.5665 25.4344C9.21436 25.4991 9.04754 25.8184 9.14208 26.1541C9.22293 26.4415 9.39626 26.636 9.66105 26.7381C10.5119 27.0659 11.0302 26.4151 11.3827 25.7567C11.6746 25.211 11.9185 24.6338 12.1874 24.0662C12.7077 22.9684 13.2177 21.891 13.7196 20.8336C13.8487 20.5609 14.1474 20.1516 14.4564 20.0807C14.4862 20.0735 14.5013 20.055 14.5013 20.0245L14.502 19.8834C14.502 19.8601 14.49 19.8477 14.4663 19.8477L12.7156 19.847C12.6964 19.847 12.6864 19.857 12.6864 19.8762V20.0286C12.6858 20.0536 12.6978 20.0663 12.7228 20.067C13.3253 20.1002 13.6744 20.3975 13.3969 21.0025C13.0136 21.8349 12.6447 22.6467 12.2891 23.4366C12.2812 23.4538 12.2579 23.4531 12.2507 23.4359" stroke="#80C0ED" stroke-width="0.141816" stroke-miterlimit="8.29"/>
<path d="M79.708 33.5271C79.7207 33.5264 79.7306 33.5165 79.7306 33.5038L79.7207 32.4172C79.7207 32.4052 79.7313 32.3946 79.7433 32.3946L80.947 32.3967C80.9597 32.3967 80.9696 32.4066 80.9696 32.4193L80.9768 33.513C80.9768 33.5281 80.9902 33.5387 81.0046 33.535L81.0861 33.5165C81.0967 33.5137 81.1039 33.5045 81.1039 33.4939L81.0912 31.3214C81.0912 31.3129 81.0861 31.3057 81.0792 31.3015L81.0176 31.269C81.0025 31.2611 80.9844 31.2717 80.9844 31.2889L80.9665 32.247C80.9659 32.259 80.9559 32.2689 80.9439 32.2689L79.746 32.2655C79.7334 32.2655 79.7234 32.2555 79.7234 32.2429L79.7221 31.3012C79.7221 31.2892 79.7121 31.2793 79.7001 31.2786L79.6166 31.2772C79.6039 31.2765 79.5933 31.2872 79.5933 31.2998L79.5953 33.5062C79.5953 33.5189 79.6059 33.5295 79.6186 33.5288L79.7087 33.5274" stroke="#809FC9" stroke-width="0.141816" stroke-miterlimit="8.29"/>
<path d="M45.5267 31.6155L46.1611 32.6962C46.1909 32.7473 46.2662 32.7473 46.296 32.6956L46.8958 31.6638C46.9397 31.5884 46.962 31.5949 46.9613 31.6823L46.9548 33.4742C46.9541 33.5204 46.9774 33.541 47.0236 33.5358L47.0592 33.5317C47.0949 33.5276 47.1123 33.5077 47.1117 33.4728L47.101 31.324C47.101 31.2935 47.086 31.2784 47.0555 31.2777L46.9931 31.2764C46.9705 31.2757 46.9534 31.2856 46.9421 31.3048L46.2529 32.4928C46.2429 32.5092 46.2203 32.5099 46.2104 32.4934L45.5674 31.4127C45.4256 31.1736 45.3544 31.1935 45.3544 31.4716L45.3564 33.4886C45.3564 33.5149 45.379 33.5348 45.4047 33.5317L45.4253 33.5297C45.4678 33.5245 45.489 33.5012 45.489 33.4588L45.4876 31.6271C45.4869 31.5747 45.5003 31.571 45.5267 31.6158" stroke="#809FC9" stroke-width="0.141816" stroke-miterlimit="8.29"/>
<path d="M50.0586 32.5975L50.7498 32.5968C50.7817 32.5968 50.8029 32.6119 50.8136 32.6417L51.1301 33.4826C51.1441 33.5196 51.1712 33.5357 51.2102 33.5316L51.2452 33.5275C51.2791 33.5234 51.2907 33.5056 51.2784 33.4737L50.4772 31.314C50.47 31.2955 50.4573 31.2835 50.4388 31.2783C50.421 31.2732 50.4025 31.2718 50.384 31.2725C50.359 31.2739 50.3422 31.2865 50.3336 31.3102L49.5324 33.4861C49.5218 33.5152 49.5317 33.5292 49.5629 33.5299L49.6198 33.5313C49.6489 33.532 49.676 33.5135 49.6859 33.4857L49.9938 32.6427C50.0051 32.6122 50.0264 32.5971 50.0586 32.5971" stroke="#809FC9" stroke-width="0.141816" stroke-miterlimit="8.29"/>
<path d="M53.6193 31.3201L53.6306 33.4874C53.6306 33.5151 53.6532 33.5371 53.6802 33.5371L54.3636 33.5336C54.849 33.5309 55.2395 33.0695 55.2364 32.5032L55.2351 32.2874C55.2323 31.7212 54.837 31.2639 54.3523 31.267L53.6689 31.2704C53.6412 31.2704 53.6193 31.2923 53.6193 31.3201Z" stroke="#809FC9" stroke-width="0.141816" stroke-miterlimit="8.29"/>
<path d="M57.8088 31.438C57.8088 31.4253 57.8194 31.4147 57.832 31.4147L58.945 31.4126C58.9584 31.4126 58.969 31.4013 58.9676 31.3876L58.9611 31.3003C58.9604 31.2883 58.9505 31.279 58.9378 31.279L57.693 31.2749C57.6803 31.2749 57.6697 31.2855 57.6697 31.2982V33.507C57.6697 33.5196 57.6803 33.5303 57.693 33.5303L58.9484 33.5203C58.9611 33.5203 58.971 33.5104 58.971 33.4977L58.9724 33.4316C58.9724 33.4189 58.9618 33.4083 58.9491 33.4083L57.832 33.3919C57.8194 33.3919 57.8088 33.3812 57.8088 33.3686L57.8094 32.4245C57.8094 32.4118 57.8201 32.4012 57.8327 32.4012L58.7737 32.394C58.785 32.394 58.795 32.3855 58.7963 32.3741L58.8083 32.3005C58.8104 32.2865 58.7997 32.2734 58.7857 32.2728L57.8317 32.2601C57.819 32.2601 57.8084 32.2495 57.8084 32.2368V31.4383" stroke="#809FC9" stroke-width="0.141816" stroke-miterlimit="8.29"/>
<path d="M65.4665 32.365C65.4353 32.3465 65.4346 32.3266 65.4651 32.3061C65.9974 31.9385 65.6751 31.2657 65.0804 31.275C64.8711 31.2777 64.6645 31.2777 64.46 31.2743C64.4337 31.2736 64.4117 31.2955 64.4117 31.3226V33.4886C64.4117 33.5136 64.4323 33.5334 64.4573 33.5317C64.8187 33.5125 65.2962 33.6211 65.5836 33.3437C65.8888 33.0491 65.8292 32.5801 65.4665 32.365Z" stroke="#809FC9" stroke-width="0.141816" stroke-miterlimit="8.29"/>
<path d="M69.178 32.3463C69.1673 32.3604 69.1461 32.3597 69.1355 32.3456L68.3682 31.2882C68.363 31.281 68.3555 31.2776 68.3476 31.2769L68.2171 31.2735C68.1952 31.2728 68.1815 31.2985 68.1952 31.3152L69.0831 32.5012C69.0858 32.5063 69.0879 32.5111 69.0879 32.5169L69.0985 33.5021C69.0985 33.5161 69.1091 33.5278 69.1235 33.5285L69.2081 33.5319C69.2232 33.5326 69.2359 33.5206 69.2359 33.5055L69.24 32.5149C69.24 32.509 69.242 32.5042 69.2451 32.4991L70.1316 31.3152C70.145 31.2974 70.1316 31.2728 70.1097 31.2735L69.9847 31.2786C69.9761 31.2793 69.9689 31.2827 69.9641 31.2892L69.1783 32.3467" stroke="#809FC9" stroke-width="0.141816" stroke-miterlimit="8.29"/>
<path d="M75.5412 31.3818C75.5419 31.3951 75.5518 31.4051 75.5652 31.4058L76.2599 31.4157C76.2725 31.4164 76.2832 31.427 76.2832 31.4397L76.2938 33.5121C76.2938 33.5261 76.3065 33.5378 76.3215 33.5354L76.3911 33.5248C76.4031 33.5234 76.4116 33.5135 76.4116 33.5015L76.4222 31.4376C76.4222 31.4242 76.4329 31.4136 76.4462 31.4136L77.1269 31.4095C77.1402 31.4095 77.1508 31.3989 77.1508 31.3855V31.3026C77.1508 31.2893 77.1402 31.2787 77.1269 31.2787L75.5635 31.2766C75.5501 31.2766 75.5385 31.2879 75.5395 31.3016L75.5409 31.3825" stroke="#809FC9" stroke-width="0.141816" stroke-miterlimit="8.29"/>
<path d="M83.6637 32.4181C83.6637 32.4074 83.6723 32.3989 83.6829 32.3982L84.6469 32.379C84.6575 32.3783 84.666 32.3698 84.6667 32.3591L84.6674 32.3036C84.6681 32.293 84.6588 32.2838 84.6482 32.2838L83.6881 32.278C83.6768 32.278 83.6682 32.2694 83.6682 32.2581L83.6696 31.4305C83.6696 31.4192 83.6781 31.4106 83.6894 31.4106L84.8123 31.3928C84.8243 31.3928 84.8335 31.3822 84.8322 31.3709L84.8229 31.3085C84.8216 31.2986 84.8137 31.2914 84.8037 31.2914L83.5641 31.2794C83.5534 31.2794 83.5442 31.2887 83.5442 31.2993L83.5528 33.5142C83.5528 33.5248 83.562 33.5341 83.5726 33.5334L84.8188 33.5094C84.8288 33.5087 84.8373 33.5009 84.838 33.4902L84.8407 33.4306C84.8407 33.4193 84.8322 33.4101 84.8209 33.4101H83.686C83.6754 33.4101 83.6661 33.4008 83.6661 33.3902L83.6641 32.4181" stroke="#809FC9" stroke-width="0.141816" stroke-miterlimit="8.29"/>
<path d="M90.3173 33.192L90.2762 33.241C90.2663 33.253 90.2663 33.2715 90.2769 33.2842C90.5708 33.6305 91.1504 33.6747 91.4409 33.2962C91.7626 32.8776 91.3779 32.4134 90.9404 32.3572C90.8247 32.3422 90.7205 32.3048 90.626 32.2452C90.4208 32.1161 90.3194 31.8372 90.479 31.6286C90.712 31.3248 91.1319 31.3306 91.4022 31.5868C91.4186 31.6026 91.4447 31.6026 91.4611 31.5861L91.5002 31.5485C91.52 31.5293 91.5194 31.4967 91.4995 31.4776C91.0672 31.0631 90.0985 31.2981 90.2752 32.0171C90.3434 32.2959 90.6201 32.4614 90.8935 32.4884C91.0744 32.5062 91.2165 32.5837 91.3179 32.7214C91.4748 32.9344 91.4039 33.2266 91.1703 33.3417C90.8801 33.4849 90.6174 33.4345 90.3831 33.1907C90.3605 33.1674 90.3382 33.168 90.317 33.1927" stroke="#809FC9" stroke-width="0.141816" stroke-miterlimit="8.29"/>
<path d="M95.1168 32.3073C95.1189 32.2947 95.1089 32.2823 95.0963 32.2823L94.134 32.2717C94.122 32.2717 94.1128 32.2625 94.1128 32.2505V31.4301C94.1128 31.4181 94.122 31.4088 94.134 31.4088L95.2651 31.4129C95.2764 31.4129 95.2857 31.4037 95.2864 31.3924L95.2891 31.3002C95.2898 31.2883 95.2799 31.2783 95.2679 31.2783H94.0104C93.9984 31.2783 93.9891 31.2876 93.9891 31.2996V33.509C93.9891 33.5203 93.9991 33.5302 94.0104 33.5302L95.2651 33.5104C95.2764 33.5104 95.2857 33.5011 95.2864 33.4898L95.2871 33.433C95.2877 33.421 95.2778 33.411 95.2658 33.411L94.1316 33.4083C94.1196 33.4083 94.1104 33.399 94.1104 33.3871L94.1111 32.4142C94.1111 32.4022 94.1203 32.393 94.1323 32.393L95.0846 32.3858C95.0952 32.3858 95.1038 32.3786 95.1052 32.368L95.1165 32.3077" stroke="#809FC9" stroke-width="0.141816" stroke-miterlimit="8.29"/>
<path d="M98.9684 32.6418L99.2808 33.478C99.2928 33.5091 99.3233 33.5297 99.3569 33.5283L99.4052 33.5269C99.4343 33.5263 99.4435 33.5119 99.4336 33.4845L98.6588 31.398C98.5906 31.2134 98.5224 31.2134 98.4543 31.398L97.6863 33.4783C97.6756 33.506 97.6856 33.5221 97.7147 33.5259L97.7764 33.5345C97.8003 33.5379 97.8233 33.5239 97.8319 33.5013L98.1504 32.6397C98.1604 32.612 98.1802 32.598 98.21 32.598L98.904 32.5973C98.9359 32.5973 98.9578 32.6123 98.9688 32.6428" stroke="#809FC9" stroke-width="0.141816" stroke-miterlimit="8.29"/>
<path d="M28.0452 18.1012C27.6712 19.0322 27.4286 20.0749 27.3176 21.229C27.3135 21.2752 27.3348 21.2985 27.3807 21.2985L32.335 21.2992C32.3528 21.2992 32.3661 21.2852 32.3655 21.2674C32.3315 20.4548 32.2007 19.6238 31.9736 18.7729C31.7656 17.9922 31.4221 17.1626 30.8373 16.6628C30.2207 16.1363 29.3986 16.2476 28.8595 16.8132C28.5166 17.1729 28.2456 17.6024 28.0449 18.1012" stroke="#809FC9" stroke-width="0.141816" stroke-miterlimit="8.29"/>
<path d="M93.5699 16.4674C92.7132 16.9045 92.2305 18.087 91.9829 18.9677C91.7736 19.7128 91.6294 20.4674 91.5519 21.2302C91.5472 21.2758 91.5677 21.2984 91.6136 21.2984L96.5785 21.2991C96.5936 21.2991 96.6056 21.2864 96.6049 21.2714C96.57 20.4581 96.4408 19.6285 96.2161 18.7831C96.0274 18.0713 95.7605 17.4834 95.4149 17.0186C94.9812 16.4345 94.2715 16.1081 93.5696 16.4671" stroke="#809FC9" stroke-width="0.141816" stroke-miterlimit="8.29"/>
<path d="M50.0721 32.4278C50.0663 32.4429 50.0773 32.4576 50.0927 32.4576L50.7158 32.4569C50.7309 32.4569 50.7415 32.4411 50.7363 32.4271L50.4233 31.5841C50.4161 31.5649 50.3883 31.5649 50.3822 31.5841L50.0721 32.4278Z" stroke="#809FC9" stroke-width="0.141816" stroke-miterlimit="8.29"/>
<path d="M53.7605 31.4458L53.7677 33.3593C53.7677 33.3805 53.7848 33.3977 53.8061 33.3977L54.3524 33.3956C54.7669 33.3942 55.1019 32.9876 55.0999 32.4872V32.3097C55.0978 31.8086 54.7601 31.404 54.3456 31.4054L53.7992 31.4075C53.778 31.4075 53.7608 31.4246 53.7608 31.4458" stroke="#809FC9" stroke-width="0.141816" stroke-miterlimit="8.29"/>
<path d="M64.5529 31.4458L64.5515 32.2306C64.5515 32.2491 64.5666 32.2638 64.5847 32.2638L65.0914 32.2645C65.3668 32.2652 65.5901 32.0792 65.5912 31.8493V31.8295C65.5918 31.6003 65.3682 31.4136 65.0931 31.4129L64.5865 31.4122C64.568 31.4122 64.5532 31.4273 64.5532 31.4455" stroke="#809FC9" stroke-width="0.141816" stroke-miterlimit="8.29"/>
<path d="M64.5515 32.4285L64.5543 33.3654C64.5543 33.3811 64.5676 33.3945 64.5834 33.3945L65.0773 33.3924C65.3866 33.3918 65.6367 33.1718 65.636 32.9012V32.8841C65.6353 32.6145 65.3832 32.3967 65.0746 32.3973L64.5806 32.3994C64.5642 32.3994 64.5515 32.4121 64.5515 32.4285Z" stroke="#809FC9" stroke-width="0.141816" stroke-miterlimit="8.29"/>
<path d="M98.2262 32.4279C98.2204 32.4429 98.2313 32.4583 98.2474 32.4583L98.8678 32.4577C98.8835 32.4577 98.8949 32.4412 98.889 32.4265L98.5773 31.5848C98.5694 31.565 98.5417 31.565 98.5348 31.5848L98.2262 32.4279Z" stroke="#809FC9" stroke-width="0.141816" stroke-miterlimit="8.29"/>
<path d="M33.3531 34.8508C33.2842 34.6356 33.0821 34.525 32.9081 34.3993C32.8259 34.3404 32.7406 34.2859 32.6533 34.2369C32.4481 34.1218 31.3423 33.4357 30.9919 33.1723C30.9039 33.1062 30.8734 33.0246 30.9011 32.9273C30.9244 32.8444 30.9792 32.8088 31.0645 32.8222C31.2718 32.854 33.8834 33.1168 33.8834 33.1168C33.8834 33.1168 34.1622 33.1671 35.6561 33.0209C37.1503 32.8746 37.2804 32.7177 37.2804 32.7177C37.2804 32.7177 38.3458 32.4574 38.6623 32.3464C39.0733 32.2028 41.6202 31.3742 41.8432 31.2831C42.1433 31.1605 43.049 30.8648 43.2713 30.7494C43.4933 30.634 42.382 31.614 41.5178 32.4015C40.8714 32.9907 39.6594 33.956 39.419 34.1143C38.9952 34.3911 38.59 34.7141 38.1502 34.9724C37.9172 35.1094 37.6994 35.2824 37.4575 35.4194C36.7598 35.8161 36.0586 36.2299 35.3539 36.6601C35.0268 36.8595 34.6925 37.0482 34.3527 37.2257C33.9241 37.45 33.5754 37.6237 33.3072 37.7481C33.004 37.8885 32.5676 38.068 31.9969 38.2876C31.8353 38.3492 31.6677 38.4047 31.4944 38.453C31.344 38.4948 31.1745 38.553 30.9857 38.6277C30.5733 38.7901 30.1256 38.9137 29.6416 38.9997C29.3072 39.0593 27.3492 39.4262 26.9796 39.468C26.8398 39.4838 26.3791 39.4814 26.289 39.4937C26.0719 39.5235 24.143 39.4389 23.8782 39.4235C23.575 39.405 22.734 39.2929 22.5902 39.2539C22.0955 39.1196 21.5646 38.9785 20.999 38.8302C20.8031 38.7791 19.9947 38.4229 19.7429 38.2999C19.3945 38.1317 18.3823 37.5853 18.2278 37.4815C17.7643 37.1698 17.4088 36.9074 17.1618 36.6923C16.9837 36.5382 16.8114 36.3916 16.6445 36.2514C16.5219 36.1494 16.4167 36.0408 16.3294 35.9264C16.1982 35.753 16.0207 35.6246 15.8878 35.4509C15.6648 35.1577 15.4059 34.9114 15.2031 34.6014C14.7694 33.9372 14.406 33.262 14.1131 32.5773C14.047 32.4238 13.9959 32.272 13.9596 32.1224C13.9079 31.9093 13.8192 31.7205 13.7664 31.5071C13.6698 31.1146 13.5571 30.7223 13.5061 30.302C13.453 29.8677 13.3975 29.4446 13.4068 29.0017C13.4133 28.7297 13.3629 28.4595 13.4016 28.1779C13.4379 27.923 13.4605 27.6641 13.4712 27.4013C13.4825 27.1324 13.7935 25.63 13.8928 25.3111C13.9134 25.2436 14.3066 24.1087 14.3861 23.9505C14.5238 23.6751 14.9808 22.6176 15.1157 22.3939C15.2575 22.1583 15.3911 21.9257 15.5151 21.6948C15.6025 21.5338 15.6991 21.3769 15.8053 21.2241C16.0204 20.9162 16.1992 20.5911 16.4335 20.2893C16.5918 20.0855 16.7329 19.8741 16.9025 19.6775C17.0244 19.5364 17.1727 19.3545 17.3468 19.1318C17.7561 18.6074 18.2281 18.0751 18.7228 17.5917C19.0208 17.3016 19.2798 16.9765 19.5857 16.6905C20.1135 16.1958 20.6404 15.7067 21.1662 15.225C21.8739 14.5763 22.5898 14.0114 23.3791 13.3811C23.5531 13.242 23.7274 13.1149 23.9028 12.9998C24.0405 12.9091 24.1471 12.7762 24.2875 12.696C24.5629 12.5384 24.7763 12.3185 25.0312 12.1325C25.5012 11.7889 25.9667 11.4392 26.4569 11.1227C26.7556 10.9295 27.0481 10.701 27.3448 10.5116C27.8552 10.1858 28.356 9.86585 28.8486 9.55276C29.7313 8.99132 30.6298 8.46413 31.527 7.93113C31.9349 7.68826 32.3474 7.45841 32.7632 7.24123C33.4439 6.88566 34.1094 6.53729 34.7589 6.19714C36.0308 5.53088 37.3202 4.91052 38.6266 4.33504C42.8609 2.46985 47.2908 1.23941 51.9159 0.643031C52.278 0.596102 52.7356 0.553626 53.2885 0.51526C53.8201 0.478265 54.3288 0.501901 54.8149 0.584798C56.9051 0.94105 58.7295 1.95534 59.4657 4.02606C59.7359 4.78617 59.8326 5.58397 59.7565 6.42048C59.6856 7.19464 59.6109 7.9599 59.4129 8.73064C59.4102 8.74126 59.3972 8.74639 59.3879 8.74057C59.3646 8.72653 59.3502 8.70563 59.3454 8.67823C59.2369 8.05581 59.0865 7.4817 58.894 6.95726C58.0516 4.6608 56.2313 3.39611 53.8304 3.10562C51.8823 2.86926 49.8099 3.18578 47.8512 3.70817C44.4709 4.60942 41.2362 6.0262 38.0381 7.68175C36.0743 8.69878 30.6209 12.0678 30.1561 12.336C29.7567 12.5665 29.3504 12.8108 28.9397 13.0683C28.3961 13.4099 27.8517 13.7517 27.3074 14.0953C27.0228 14.2755 26.7213 14.4827 26.4041 14.7177C26.2949 14.7993 26.1698 14.8291 26.0657 14.9236C25.7512 15.2096 25.4083 15.4559 25.0374 15.6618C24.9247 15.7248 24.8229 15.8029 24.7342 15.8968C24.5602 16.08 24.3338 16.1999 24.133 16.3644C23.6469 16.7624 23.1544 17.1642 22.6553 17.5681C21.9369 18.1494 21.3912 18.6235 21.0179 18.9897C20.8887 19.1161 20.7661 19.2339 20.6496 19.3432C20.2968 19.6724 19.9834 20.0416 19.6597 20.3972C19.5552 20.5116 18.4241 21.9438 18.2117 22.3333C18.0719 22.5909 17.9236 22.8379 17.7667 23.0749C17.7078 23.165 17.3522 23.9436 17.2265 24.1906C17.1656 24.3105 17.1087 24.4482 17.057 24.603C16.7113 25.6365 16.4849 26.471 16.377 27.1074C16.3167 27.4602 16.2941 27.9086 16.3088 28.4523C16.3116 28.5742 16.3246 28.9236 16.328 28.9753C16.363 29.5361 16.4208 29.9732 16.5041 30.287C16.5928 30.6254 16.7617 31.1074 17.0093 31.7318C17.0888 31.9333 17.6085 32.7845 17.6544 32.8503C17.9469 33.2719 18.2734 33.684 18.633 34.0872C18.7855 34.2575 18.9629 34.4209 19.166 34.5777C19.3548 34.7233 19.5514 34.8703 19.7559 35.0179C20.2228 35.355 20.6424 35.6112 21.0134 35.7866C21.1247 35.8397 21.2354 35.8918 21.345 35.9421C21.9715 36.233 22.5727 36.4539 23.1499 36.605C23.3763 36.6646 23.5969 36.7101 23.8114 36.7406C24.3101 36.8129 24.7979 36.9054 25.2973 36.9115C25.447 36.9136 25.5954 36.928 25.7437 36.9554C26.0753 37.0157 27.2958 36.893 27.403 36.9016C27.5058 36.9095 28.4128 36.7183 28.8225 36.6574C29.1178 36.6135 29.386 36.4984 29.6786 36.4453C29.9468 36.3963 31.3903 35.8568 31.6503 35.7315C31.9086 35.6064 32.1734 35.5506 32.4244 35.405C32.5508 35.332 33.3329 34.9145 33.3329 34.9145C33.3329 34.9145 33.3606 34.8761 33.3528 34.8497L33.3531 34.8508Z" fill="#003E93"/>
<path d="M51.2469 7.56302C52.1794 7.56302 52.9353 6.80708 52.9353 5.87459C52.9353 4.94209 52.1794 4.18616 51.2469 4.18616C50.3144 4.18616 49.5585 4.94209 49.5585 5.87459C49.5585 6.80708 50.3144 7.56302 51.2469 7.56302Z" fill="#003E93"/>
<path d="M46.2452 26.2203C46.4121 25.8407 46.6299 25.4793 46.818 25.1053C47.4404 23.8676 48.0395 22.5824 48.6859 21.3396C49.4632 19.8458 50.2288 18.3461 50.9824 16.8409C51.3479 16.112 51.7922 15.3094 52.3159 14.4335C53.0305 13.2397 53.8461 12.0736 54.8686 11.1943C55.4989 10.6521 56.2299 10.4171 57.0623 10.4904C58.1852 10.5883 58.9586 11.3909 59.0402 12.5008C59.094 13.2267 58.737 14.0436 57.9906 14.2773C57.9642 14.2851 57.9402 14.2814 57.9169 14.2666C56.8708 13.5874 55.6948 13.9642 54.7446 14.6791C53.4025 15.6875 52.4074 17.0759 51.463 18.5362C50.6857 19.7379 49.9653 20.9834 49.2515 22.2415C49.0357 22.6218 48.7945 23.0287 48.5277 23.4624C47.8107 24.625 47.251 25.5913 46.8485 26.3614C46.2631 27.4812 45.6982 28.5657 45.1522 29.6153C45.1429 29.6331 45.1244 29.6444 45.1046 29.6444L44.3986 29.643C44.3694 29.643 44.3489 29.6304 44.3369 29.6047C42.4426 25.775 40.5428 21.9357 38.6365 18.0854C38.2453 17.2948 37.6137 16.6241 36.7097 16.5275C36.6991 16.5268 36.6939 16.521 36.6939 16.5103L36.6932 15.9249C36.6932 15.9109 36.7004 15.9037 36.7145 15.9037L42.6916 15.9044C42.705 15.9044 42.7122 15.9109 42.7122 15.9242L42.7129 16.511C42.7129 16.521 42.7077 16.5268 42.6978 16.5288C41.9774 16.6494 41.8212 17.3188 42.1072 17.9014C43.4466 20.6316 44.8076 23.4052 46.1908 26.2213C46.21 26.2597 46.2278 26.259 46.2446 26.2199L46.2452 26.2203Z" fill="#003E93"/>
<path d="M27.2666 21.9136C27.2255 23.6671 27.6486 25.5686 28.8372 26.7956C29.7515 27.7387 31.0261 28.049 32.3213 27.7829C33.4993 27.541 34.4626 26.9484 35.211 26.005C35.2189 25.9951 35.233 25.993 35.2429 25.9999L35.5467 26.1993C35.5632 26.2099 35.5687 26.2304 35.5601 26.2482C35.2364 26.9238 34.8531 27.5356 34.4105 28.0843C33.2181 29.5604 31.6115 30.0345 29.7761 29.9266C26.5336 29.7364 24.4796 27.4184 24.058 24.283C23.8281 22.5761 23.9942 20.9963 24.556 19.5435C25.3552 17.4776 27.0477 16.0334 29.2805 15.7734C33.189 15.3192 35.6714 18.073 35.6067 21.828C35.606 21.8506 35.5875 21.8691 35.5649 21.8691H27.3118C27.282 21.8691 27.267 21.8842 27.2663 21.9129L27.2666 21.9136ZM28.0452 18.101C27.6712 19.0321 27.4286 20.0748 27.3177 21.2289C27.3136 21.2751 27.3348 21.2984 27.3807 21.2984L32.335 21.2991C32.3528 21.2991 32.3662 21.285 32.3655 21.2672C32.3316 20.4547 32.2007 19.6237 31.9736 18.7728C31.7657 17.9921 31.4221 17.1625 30.8374 16.6627C30.2208 16.1362 29.3987 16.2475 28.8595 16.8131C28.5166 17.1727 28.2456 17.6023 28.0449 18.101H28.0452Z" fill="#003E93"/>
<path d="M91.5046 21.9164C91.4696 23.4983 91.8005 25.1251 92.7038 26.3562C93.515 27.462 94.7358 28.0005 96.1197 27.848C97.4553 27.7004 98.5584 27.0958 99.4284 26.0346C99.4524 26.0048 99.4808 26.0007 99.5137 26.0219L99.7686 26.1901C99.8018 26.212 99.8097 26.2411 99.7919 26.2774C98.7927 28.2618 97.518 29.694 95.2031 29.9075C94.4145 29.9804 93.6637 29.9379 92.9518 29.781C88.9094 28.8897 87.6858 24.5698 88.3778 20.9871C88.9385 18.0864 90.8575 15.9496 93.898 15.7382C97.6465 15.4772 99.9275 18.2953 99.8402 21.8503C99.8402 21.863 99.8337 21.8695 99.821 21.8695H91.5529C91.5217 21.8695 91.5053 21.8853 91.5046 21.9164ZM93.5698 16.4675C92.7131 16.9046 92.2304 18.0871 91.9828 18.9678C91.7735 19.7128 91.6293 20.4675 91.5518 21.2303C91.547 21.2759 91.5676 21.2985 91.6135 21.2985L96.5784 21.2992C96.5935 21.2992 96.6055 21.2865 96.6048 21.2714C96.5698 20.4582 96.4407 19.6286 96.216 18.7831C96.0273 18.0713 95.7604 17.4835 95.4148 17.0187C94.9811 16.4346 94.2713 16.1082 93.5695 16.4672L93.5698 16.4675Z" fill="#003E93"/>
<path d="M55.2978 19.7123C55.2991 18.8039 54.948 18.175 53.9557 18.1503C53.9293 18.1496 53.9159 18.1362 53.9159 18.1092L53.9166 17.5529C53.9166 17.5337 53.9259 17.521 53.9444 17.5145L58.3965 16.0888C58.4105 16.0847 58.4249 16.0946 58.4249 16.1094C58.4342 19.9538 58.4335 23.6725 58.4229 27.2645C58.4215 27.7386 58.4605 28.077 58.5393 28.2795C58.7359 28.7834 59.1631 29.0403 59.8198 29.0495C59.8318 29.0495 59.8417 29.0595 59.8417 29.0722V29.6377C59.8417 29.6418 59.8396 29.6442 59.8352 29.6442H53.9303C53.9197 29.6442 53.9146 29.6391 53.9146 29.6291L53.9159 29.0883C53.9159 29.0684 53.9317 29.0519 53.9515 29.0513C54.9552 29.0201 55.2991 28.4175 55.2978 27.5283C55.295 24.9756 55.295 22.3702 55.2978 19.7123Z" fill="#003E93"/>
<path d="M79.708 33.5273L79.6179 33.5287C79.6052 33.5294 79.5946 33.5188 79.5946 33.5061L79.5925 31.2997C79.5925 31.287 79.6031 31.2764 79.6158 31.2771L79.6994 31.2785C79.7114 31.2792 79.7213 31.2891 79.7213 31.3011L79.7227 32.2428C79.7227 32.2554 79.7326 32.2654 79.7453 32.2654L80.9432 32.2688C80.9552 32.2688 80.9651 32.2589 80.9658 32.2469L80.9836 31.2888C80.9836 31.2716 81.0021 31.261 81.0169 31.2689L81.0785 31.3014C81.0857 31.3055 81.0905 31.3127 81.0905 31.3213L81.1032 33.4937C81.1032 33.5044 81.096 33.5136 81.0854 33.5164L81.0038 33.5349C80.9898 33.5383 80.9761 33.5277 80.9761 33.5129L80.9689 32.4192C80.9689 32.4065 80.959 32.3966 80.9463 32.3966L79.7426 32.3945C79.7306 32.3945 79.72 32.4051 79.72 32.4171L79.7299 33.5037C79.7299 33.5164 79.72 33.5263 79.7073 33.527L79.708 33.5273Z" fill="#003E93"/>
<path d="M45.4876 31.6269L45.489 33.4585C45.489 33.501 45.4678 33.5246 45.4253 33.5294L45.4047 33.5315C45.379 33.5342 45.3564 33.5143 45.3564 33.4883L45.3544 31.4714C45.3544 31.1932 45.4253 31.1734 45.5674 31.4125L46.2104 32.4932C46.2203 32.5096 46.2429 32.509 46.2529 32.4925L46.9421 31.3046C46.9534 31.2854 46.9705 31.2754 46.9931 31.2761L47.0555 31.2775C47.086 31.2782 47.101 31.2933 47.101 31.3237L47.1117 33.4726C47.1123 33.5075 47.0945 33.5274 47.0592 33.5315L47.0236 33.5356C46.9774 33.5407 46.9541 33.5198 46.9548 33.4739L46.9613 31.682C46.962 31.5947 46.94 31.5885 46.8958 31.6636L46.296 32.6953C46.2662 32.747 46.1909 32.747 46.1611 32.696L45.5267 31.6153C45.5003 31.5704 45.4869 31.5741 45.4876 31.6266V31.6269Z" fill="#003E93"/>
<path d="M49.9942 32.6431L49.6863 33.4861C49.6763 33.5138 49.6493 33.5323 49.6201 33.5316L49.5633 33.5303C49.5321 33.5296 49.5222 33.5152 49.5328 33.4864L50.334 31.3106C50.3426 31.2873 50.3597 31.2742 50.3844 31.2729C50.4029 31.2722 50.4214 31.2736 50.4392 31.2787C50.4577 31.2838 50.4704 31.2958 50.4775 31.3143L51.2788 33.4741C51.2908 33.506 51.2795 33.5238 51.2455 33.5279L51.2106 33.532C51.1715 33.5361 51.1445 33.52 51.1304 33.483L50.8139 32.642C50.8033 32.6122 50.7821 32.5972 50.7502 32.5972L50.0589 32.5979C50.0271 32.5979 50.0059 32.6129 49.9942 32.6434V32.6431ZM50.0723 32.4279C50.0665 32.443 50.0774 32.4578 50.0929 32.4578L50.716 32.4571C50.731 32.4571 50.7416 32.4413 50.7365 32.4273L50.4234 31.5842C50.4162 31.5651 50.3885 31.5651 50.3823 31.5842L50.0723 32.4279Z" fill="#003E93"/>
<path d="M53.6193 31.3202C53.6193 31.2925 53.6412 31.2705 53.6689 31.2705L54.3523 31.2671C54.837 31.2644 55.2323 31.7213 55.2351 32.2876L55.2364 32.5034C55.2392 33.0696 54.849 33.531 54.3636 33.5338L53.6802 33.5372C53.6532 33.5372 53.6306 33.5153 53.6306 33.4875L53.6193 31.3202ZM53.7604 31.4459L53.7676 33.3594C53.7676 33.3806 53.7847 33.3978 53.806 33.3978L54.3523 33.3957C54.7668 33.3943 55.1018 32.9877 55.0998 32.4873V32.3098C55.0977 31.8087 54.76 31.4041 54.3455 31.4055L53.7991 31.4075C53.7779 31.4075 53.7607 31.4247 53.7607 31.4459H53.7604Z" fill="#003E93"/>
<path d="M57.8087 31.4382V32.2367C57.8087 32.2493 57.8193 32.26 57.8319 32.26L58.7859 32.2726C58.8 32.2733 58.811 32.286 58.8086 32.3004L58.7966 32.374C58.7952 32.3853 58.7853 32.3939 58.774 32.3939L57.833 32.4011C57.8203 32.4011 57.8097 32.4117 57.8097 32.4244L57.809 33.3684C57.809 33.3811 57.8196 33.3917 57.8323 33.3917L58.9493 33.4082C58.962 33.4082 58.9726 33.4188 58.9726 33.4315L58.9713 33.4976C58.9713 33.5103 58.9613 33.5202 58.9487 33.5202L57.6932 33.5301C57.6805 33.5301 57.6699 33.5195 57.6699 33.5068V31.2981C57.6699 31.2854 57.6805 31.2748 57.6932 31.2748L58.938 31.2789C58.9507 31.2789 58.9606 31.2881 58.9613 31.3001L58.9678 31.3875C58.9692 31.4008 58.9586 31.4125 58.9452 31.4125L57.8323 31.4145C57.8196 31.4145 57.809 31.4252 57.809 31.4378L57.8087 31.4382Z" fill="#003E93"/>
<path d="M65.4665 32.3649C65.8292 32.58 65.8888 33.0489 65.5836 33.3435C65.2962 33.621 64.8187 33.5124 64.4573 33.5316C64.4323 33.533 64.4117 33.5131 64.4117 33.4884V31.3225C64.4117 31.2954 64.4337 31.2735 64.46 31.2742C64.6645 31.2776 64.8711 31.2776 65.0804 31.2749C65.6751 31.2656 65.9974 31.9384 65.4651 32.3059C65.4346 32.3265 65.4353 32.3464 65.4665 32.3649ZM64.5529 31.4458L64.5515 32.2306C64.5515 32.2491 64.5666 32.2638 64.5847 32.2638L65.0914 32.2645C65.3668 32.2652 65.5901 32.0792 65.5911 31.8493V31.8295C65.5918 31.6003 65.3681 31.4136 65.0931 31.4129L64.5864 31.4122C64.5679 31.4122 64.5532 31.4273 64.5532 31.4455L64.5529 31.4458ZM64.5515 32.4286L64.5542 33.3655C64.5542 33.3812 64.5676 33.3946 64.5834 33.3946L65.0773 33.3925C65.3866 33.3918 65.6367 33.1719 65.636 32.9013V32.8842C65.6353 32.6146 65.3832 32.3967 65.0746 32.3974L64.5806 32.3995C64.5642 32.3995 64.5515 32.4121 64.5515 32.4286Z" fill="#003E93"/>
<path d="M69.178 32.3465L69.9638 31.2891C69.969 31.2826 69.9758 31.2792 69.9844 31.2785L70.1094 31.2733C70.1313 31.2726 70.1451 31.2973 70.1313 31.3151L69.2448 32.499C69.2421 32.5041 69.2397 32.5089 69.2397 32.5147L69.2356 33.5054C69.2356 33.5205 69.2229 33.5324 69.2078 33.5318L69.1232 33.5283C69.1092 33.5277 69.0982 33.5163 69.0982 33.502L69.0876 32.5168C69.0876 32.511 69.0855 32.5062 69.0828 32.501L68.1949 31.3151C68.1816 31.298 68.1949 31.2726 68.2168 31.2733L68.3473 31.2768C68.3552 31.2774 68.3631 31.2809 68.3679 31.2881L69.1352 32.3455C69.1458 32.3596 69.1671 32.3606 69.1777 32.3462L69.178 32.3465Z" fill="#003E93"/>
<path d="M75.5411 31.3817L75.5397 31.3009C75.539 31.2875 75.5503 31.2759 75.5637 31.2759L77.1271 31.2779C77.1404 31.2779 77.1511 31.2886 77.1511 31.3019V31.3848C77.1511 31.3982 77.1404 31.4088 77.1271 31.4088L76.4464 31.4129C76.4331 31.4129 76.4225 31.4235 76.4225 31.4369L76.4118 33.5007C76.4118 33.5127 76.4033 33.5227 76.3913 33.524L76.3217 33.5347C76.3067 33.5367 76.294 33.5254 76.294 33.5114L76.2834 31.4389C76.2834 31.4263 76.2728 31.4156 76.2601 31.415L75.5654 31.405C75.552 31.4043 75.5421 31.3944 75.5414 31.381L75.5411 31.3817Z" fill="#003E93"/>
<path d="M83.6638 32.4182L83.6659 33.3903C83.6659 33.401 83.6751 33.4102 83.6858 33.4102H84.8206C84.8319 33.4102 84.8405 33.4195 84.8405 33.4308L84.8378 33.4904C84.8371 33.501 84.8285 33.5089 84.8186 33.5095L83.5724 33.5335C83.5618 33.5342 83.5525 33.525 83.5525 33.5143L83.5439 31.2994C83.5439 31.2888 83.5532 31.2795 83.5638 31.2795L84.8035 31.2915C84.8134 31.2915 84.8213 31.2987 84.8227 31.3087L84.8319 31.371C84.8333 31.3823 84.8241 31.3929 84.8121 31.3929L83.6892 31.4107C83.6779 31.4107 83.6693 31.4193 83.6693 31.4306L83.6679 32.2582C83.6679 32.2695 83.6765 32.2781 83.6878 32.2781L84.648 32.2839C84.6586 32.2839 84.6678 32.2931 84.6672 32.3038L84.6665 32.3593C84.6658 32.3699 84.6572 32.3784 84.6466 32.3791L83.6827 32.3983C83.6721 32.399 83.6635 32.4076 83.6635 32.4182H83.6638Z" fill="#003E93"/>
<path d="M90.3831 33.1903C90.6174 33.4345 90.8798 33.4849 91.1703 33.3413C91.4039 33.2263 91.4748 32.9341 91.3179 32.721C91.2165 32.5833 91.0744 32.5059 90.8935 32.4881C90.6201 32.461 90.3434 32.2959 90.2752 32.0167C90.0985 31.2977 91.0672 31.0627 91.4995 31.4772C91.5194 31.4964 91.52 31.5289 91.5002 31.5481L91.4611 31.5858C91.4447 31.6022 91.4186 31.6022 91.4022 31.5865C91.1319 31.3302 90.7116 31.3244 90.479 31.6283C90.3194 31.8369 90.4208 32.1157 90.626 32.2448C90.7205 32.3045 90.8247 32.3421 90.9404 32.3569C91.3775 32.413 91.7622 32.8772 91.4409 33.2958C91.1508 33.674 90.5708 33.6301 90.2769 33.2838C90.2663 33.2711 90.2663 33.2526 90.2762 33.2406L90.3173 33.1917C90.3386 33.1666 90.3605 33.166 90.3835 33.1896L90.3831 33.1903Z" fill="#003E93"/>
<path d="M95.117 32.3074L95.1057 32.3677C95.1043 32.3783 95.0957 32.3855 95.0851 32.3855L94.1328 32.3927C94.1208 32.3927 94.1116 32.402 94.1116 32.414L94.1109 33.3868C94.1109 33.3988 94.1201 33.4081 94.1321 33.4081L95.2663 33.4108C95.2783 33.4108 95.2882 33.4207 95.2875 33.4327L95.2869 33.4896C95.2862 33.5009 95.2769 33.5101 95.2656 33.5101L94.0109 33.53C93.9996 33.53 93.9896 33.5201 93.9896 33.5088V31.2993C93.9896 31.2873 93.9989 31.2781 94.0109 31.2781H95.2684C95.2804 31.2781 95.2903 31.288 95.2896 31.3L95.2869 31.3921C95.2862 31.4035 95.2769 31.4127 95.2656 31.4127L94.1345 31.4086C94.1225 31.4086 94.1133 31.4178 94.1133 31.4298V32.2502C94.1133 32.2622 94.1225 32.2715 94.1345 32.2715L95.0967 32.2821C95.1094 32.2821 95.1194 32.2941 95.1173 32.3071L95.117 32.3074Z" fill="#003E93"/>
<path d="M98.904 32.5959L98.21 32.5966C98.1802 32.5966 98.1604 32.6107 98.1504 32.6384L97.8319 33.4999C97.8233 33.5225 97.8007 33.5369 97.7764 33.5331L97.7147 33.5246C97.6856 33.5212 97.6756 33.5047 97.6863 33.477L98.4543 31.3967C98.5224 31.212 98.5906 31.212 98.6588 31.3967L99.4336 33.4831C99.4435 33.5109 99.4343 33.5249 99.4052 33.5256L99.3569 33.527C99.3237 33.5283 99.2932 33.5078 99.2808 33.4766L98.9684 32.6405C98.9578 32.61 98.9359 32.5949 98.9037 32.5949L98.904 32.5959ZM98.2261 32.4277C98.2203 32.4428 98.2313 32.4582 98.2474 32.4582L98.8677 32.4575C98.8835 32.4575 98.8948 32.4411 98.889 32.4264L98.5772 31.5847C98.5694 31.5648 98.5416 31.5648 98.5348 31.5847L98.2261 32.4277Z" fill="#003E93"/>
<path d="M18.349 16.5672C18.2 16.7121 18.0417 16.8923 17.8749 17.1081C17.802 17.2026 17.7167 17.2253 17.6201 17.1749C17.5838 17.1564 17.5677 17.1132 17.5817 17.0756C17.8328 16.4134 18.0274 15.7249 18.1651 15.0096C18.2099 14.7747 18.2764 14.2601 18.3644 13.4668C18.4206 12.955 18.3977 12.3165 18.2949 11.5499C18.2346 11.0991 18.1041 10.7038 17.9044 10.364C17.6019 9.84947 17.223 9.4391 16.7668 9.13491C16.2978 8.82182 15.808 8.57279 15.2976 8.3861C15.2626 8.37342 15.2407 8.3491 15.2328 8.31382C15.2229 8.27134 15.2435 8.22784 15.2818 8.20797C15.6871 7.99422 16.0875 7.78287 16.4842 7.57425C16.9839 7.31083 17.5331 7.0618 18.1322 6.82681C18.5607 6.65862 18.9646 6.45069 19.4068 6.28729C19.8299 6.13041 20.2484 5.97489 20.6636 5.82177C21.272 5.59671 22.0098 5.34117 22.8785 5.05685C23.2889 4.92257 23.7339 4.78658 24.2128 4.64956C25.6597 4.23508 27.1892 3.84765 28.8023 3.48626C28.9492 3.45303 29.0924 3.4246 29.2325 3.40028C29.4737 3.35781 29.7025 3.27902 29.9457 3.23483C30.3324 3.16461 30.7144 3.09301 31.0926 3.01902C31.8811 2.86419 32.671 2.75492 33.4671 2.62441C33.8576 2.56069 34.2649 2.50314 34.69 2.45279C35.9143 2.30652 37.1166 2.21711 38.2974 2.18457C38.826 2.1695 39.3682 2.19314 39.9235 2.25617C40.2335 2.29179 40.5027 2.23047 40.8014 2.38188C40.8193 2.39113 40.8234 2.4038 40.8155 2.42162C40.7672 2.52678 40.7069 2.5833 40.5935 2.61961C40.1047 2.7765 39.6686 2.93407 39.2857 3.09233C38.517 3.40953 37.5554 3.8247 36.4007 4.33784C36.2007 4.42656 36.0034 4.52453 35.8095 4.63106C35.5433 4.77733 35.2693 4.8914 35.0089 5.02774C34.4701 5.30966 33.9145 5.59192 33.3417 5.87384C33.0982 5.99373 32.8742 6.15712 32.6412 6.28421C31.8804 6.69938 31.2354 7.06488 30.7051 7.3814C30.0032 7.80068 29.2644 8.2501 28.4902 8.72899C27.654 9.24555 26.8727 9.80973 26.066 10.3393C25.733 10.5572 25.3959 10.7922 25.0561 11.0439C24.4992 11.4564 23.9432 11.8777 23.3811 12.2754C23.0916 12.4806 22.8176 12.6933 22.5593 12.9149C22.0533 13.3493 21.5138 13.7261 21.012 14.1591C19.8977 15.1206 19.0098 15.9236 18.3483 16.5679L18.349 16.5672Z" fill="#0080DB"/>
<path d="M2.07552 18.9323C2.06764 18.9152 2.04229 18.9217 2.04229 18.9402C2.04811 20.42 2.04743 21.9132 2.04023 23.4211C2.03955 23.6084 2.06079 23.7674 2.10395 23.8986C2.2324 24.284 2.70238 24.3576 3.06206 24.3323C3.08981 24.3302 3.10385 24.3436 3.10317 24.372L3.10043 24.509C3.09974 24.5354 3.08707 24.5481 3.06069 24.5481H1.01669C1.00608 24.5481 1.00025 24.5422 0.999567 24.5316L0.996826 24.3569C0.996826 24.3418 1.00402 24.335 1.01875 24.335C1.59937 24.3436 1.8532 24.0555 1.85115 23.4862C1.84601 21.9176 1.84532 20.2881 1.84909 18.5976C1.84909 18.5719 1.83984 18.55 1.82134 18.5322C1.62917 18.3489 1.40549 18.252 1.15132 18.2414C1.13145 18.2407 1.12151 18.2308 1.12151 18.2102L1.12014 18.0725C1.11946 18.0468 1.13213 18.0341 1.15782 18.0341H2.80652C2.83289 18.0341 2.85208 18.0461 2.86338 18.0698L5.25164 23.0631C5.26089 23.083 5.29 23.0823 5.29788 23.0617L7.26104 18.0711C7.27097 18.0461 7.28947 18.0334 7.31653 18.0334L8.9248 18.0348C8.93474 18.0348 8.93987 18.04 8.93987 18.0499L8.93919 18.2116C8.93919 18.2249 8.92926 18.2356 8.9159 18.2373C8.56444 18.2643 8.3572 18.4305 8.35823 18.7843C8.36097 20.3714 8.36165 22.0581 8.35959 23.8452C8.35959 24.1624 8.61925 24.3377 8.92583 24.3357C8.93576 24.3357 8.9409 24.3408 8.9409 24.3508L8.93885 24.5268C8.93885 24.5409 8.93165 24.5481 8.91692 24.5481H6.72597C6.71193 24.5481 6.70474 24.5409 6.70405 24.5268L6.69994 24.3501C6.69926 24.3422 6.70337 24.3381 6.71193 24.3374C7.09148 24.3223 7.28193 24.1528 7.28262 23.8284C7.28467 22.1009 7.28673 20.3772 7.28913 18.6576C7.28913 18.5915 7.27714 18.5894 7.25282 18.6504L5.01425 24.3549C4.95876 24.496 4.76145 24.5039 4.69568 24.3669L2.07689 18.932L2.07552 18.9323Z" fill="#0080DB"/>
<path d="M12.2499 23.4359C12.2571 23.4531 12.2804 23.4538 12.2882 23.4366C12.6438 22.6467 13.0127 21.8349 13.396 21.0025C13.6735 20.3979 13.3244 20.1005 12.7219 20.067C12.6969 20.0663 12.6849 20.0536 12.6856 20.0286V19.8762C12.6856 19.857 12.6955 19.847 12.7147 19.847L14.4655 19.8477C14.4888 19.8477 14.5011 19.8597 14.5011 19.8834L14.5004 20.0245C14.5004 20.055 14.4854 20.0735 14.4556 20.0807C14.1469 20.1516 13.8482 20.5613 13.7187 20.8336C13.2169 21.891 12.7068 22.9684 12.1865 24.0662C11.9176 24.6338 11.6734 25.211 11.3818 25.7567C11.029 26.4154 10.5111 27.0663 9.66019 26.7381C9.3954 26.636 9.22241 26.4415 9.14123 26.1541C9.04669 25.8184 9.21351 25.4991 9.56565 25.4344C10.0027 25.3535 10.1617 25.6848 10.2151 26.0503C10.2285 26.1404 10.2627 26.2157 10.3186 26.2753C10.7755 26.7607 11.4887 25.0987 11.6072 24.8291C11.6165 24.8072 11.6172 24.7852 11.6086 24.763C11.0742 23.4329 10.5525 22.1315 10.0445 20.8589C9.89347 20.4801 9.62799 20.2153 9.24879 20.0642C9.21625 20.0515 9.20323 20.0279 9.21043 19.9933C9.21556 19.9663 9.21556 19.9395 9.20974 19.9125C9.20118 19.8693 9.21899 19.8477 9.26284 19.8477H11.252C11.287 19.8477 11.3037 19.8649 11.3037 19.8995L11.3031 20.0139C11.3031 20.0444 11.289 20.0649 11.2599 20.0755C11.0578 20.1485 11.0009 20.2985 11.0903 20.5246C11.4822 21.5105 11.8683 22.4813 12.2492 23.4359H12.2499Z" fill="#0080DB"/>
<path d="M60.928 22.7289C60.9471 21.7212 61.0879 20.7949 61.3496 19.9515C61.6113 19.1082 62.0135 18.3813 62.5564 17.7705C63.099 17.1598 63.7824 16.6798 64.6066 16.3308C65.4304 15.9817 66.4142 15.8074 67.5583 15.8074C68.2369 15.8074 68.857 15.8995 69.4198 16.0838C69.9819 16.2684 70.4714 16.5154 70.8883 16.8254C71.3048 17.1358 71.6344 17.4992 71.8772 17.9161C72.1194 18.3333 72.2407 18.7841 72.2407 19.2685C72.2598 19.7337 72.0951 20.0975 71.7464 20.3592C71.3973 20.6209 71.0092 20.7517 70.5831 20.7517C70.195 20.7517 69.8363 20.6455 69.5071 20.4318C69.1772 20.2187 68.9642 19.8697 68.8672 19.385C68.809 19.1137 68.7312 18.8177 68.6346 18.4981C68.5374 18.1782 68.4164 17.8829 68.2712 17.6112C68.1256 17.3399 67.9413 17.1169 67.7187 16.9422C67.4957 16.7679 67.2192 16.6805 66.8897 16.6805C66.1337 16.6805 65.5373 17.1748 65.1012 18.1638C64.6652 19.1524 64.4367 20.4613 64.4178 22.0897C64.4178 22.9622 64.5196 23.7473 64.7231 24.4455C64.9265 25.1436 65.2174 25.7396 65.5955 26.2339C65.9737 26.7282 66.4194 27.1064 66.9332 27.3681C67.4467 27.6298 67.9948 27.7607 68.5764 27.7607C69.1968 27.7607 69.8075 27.6151 70.4087 27.3242C71.0003 27.0379 71.4703 26.62 71.818 26.0698C71.8269 26.0558 71.845 26.0513 71.8594 26.0596L72.4493 26.4079C72.463 26.4161 72.4685 26.4333 72.4616 26.4477C72.3078 26.771 72.1081 27.1307 71.8628 27.5274C71.6107 27.9343 71.276 28.3176 70.8595 28.6759C70.4423 29.0349 69.9336 29.3354 69.3328 29.5775C68.7316 29.8197 67.9948 29.941 67.1226 29.941C66.134 29.941 65.2564 29.7711 64.4908 29.432C63.7245 29.0928 63.0754 28.6081 62.5424 27.9778C62.009 27.3479 61.6017 26.5919 61.3209 25.7095C61.0396 24.8274 60.9088 23.8337 60.9283 22.7286L60.928 22.7289Z" stroke="#809FC9" stroke-width="0.141816" stroke-miterlimit="8.29"/>
<path d="M73.6739 27.4114V13.0158C73.6739 12.5119 73.5721 12.1577 73.3686 11.9542C73.1693 11.7548 72.8254 11.6531 72.3379 11.649C72.3211 11.649 72.3071 11.6353 72.3071 11.6185V10.7991C72.3071 10.7858 72.316 10.7738 72.3287 10.7697L77.0072 9.30562C77.0271 9.29945 77.0473 9.31418 77.0473 9.33508V17.1613C77.0473 17.1884 77.0795 17.2021 77.099 17.1836C77.5717 16.7424 78.1167 16.4053 78.734 16.171C79.3739 15.9288 80.0617 15.8076 80.7989 15.8076C81.4193 15.8076 82.0105 15.8757 82.573 16.011C83.1351 16.147 83.6345 16.37 84.0706 16.68C84.5067 16.9904 84.8509 17.3977 85.103 17.9016C85.3548 18.4061 85.4812 19.0262 85.4812 19.7626V27.4111C85.4812 27.9153 85.583 28.2692 85.7864 28.4727C85.9858 28.672 86.329 28.7738 86.8172 28.7779C86.8339 28.7779 86.848 28.7916 86.848 28.8084V29.6195C86.848 29.6366 86.8343 29.6503 86.8172 29.6503H80.7715C80.7544 29.6503 80.7407 29.6366 80.7407 29.6195V28.8084C80.7407 28.7916 80.7547 28.7779 80.7715 28.7779C81.2589 28.7738 81.6029 28.672 81.8022 28.4727C82.0057 28.2692 82.1074 27.9157 82.1074 27.4111V19.7626C82.1074 18.8902 81.9184 18.1924 81.5402 17.6686C81.162 17.1452 80.5173 16.8835 79.6061 16.8835C79.3735 16.8835 79.1118 16.9373 78.821 17.0435C78.5302 17.1504 78.2537 17.3199 77.992 17.5525C77.7303 17.7851 77.507 18.0811 77.323 18.4394C77.1384 18.7984 77.0466 19.2392 77.0466 19.7626V27.4111C77.0466 27.9153 77.1483 28.2692 77.3518 28.4727C77.5512 28.672 77.8944 28.7738 78.3825 28.7779C78.3993 28.7779 78.4134 28.7916 78.4134 28.8084V29.6195C78.4134 29.6366 78.3997 29.6503 78.3825 29.6503H72.3372C72.3201 29.6503 72.3064 29.6366 72.3064 29.6195V28.8084C72.3064 28.7916 72.3204 28.7779 72.3372 28.7779C72.8247 28.7738 73.1686 28.672 73.368 28.4727C73.5714 28.2692 73.6732 27.9157 73.6732 27.4111L73.6739 27.4114Z" stroke="#809FC9" stroke-width="0.141816" stroke-miterlimit="8.29"/>
<path d="M60.928 22.7289C60.9471 21.7212 61.0879 20.7949 61.3496 19.9515C61.6113 19.1082 62.0135 18.3813 62.5564 17.7705C63.099 17.1598 63.7824 16.6798 64.6066 16.3308C65.4304 15.9817 66.4142 15.8074 67.5583 15.8074C68.2369 15.8074 68.857 15.8995 69.4198 16.0838C69.9819 16.2684 70.4714 16.5154 70.8883 16.8254C71.3048 17.1358 71.6344 17.4992 71.8772 17.9161C72.1194 18.3333 72.2407 18.7841 72.2407 19.2685C72.2598 19.7337 72.0951 20.0975 71.7464 20.3592C71.3973 20.6209 71.0092 20.7517 70.5831 20.7517C70.195 20.7517 69.8363 20.6455 69.5071 20.4318C69.1772 20.2187 68.9642 19.8697 68.8672 19.385C68.809 19.1137 68.7312 18.8177 68.6346 18.4981C68.5374 18.1782 68.4164 17.8829 68.2712 17.6112C68.1256 17.3399 67.9413 17.1169 67.7187 16.9422C67.4957 16.7679 67.2192 16.6805 66.8897 16.6805C66.1337 16.6805 65.5373 17.1748 65.1012 18.1638C64.6652 19.1524 64.4367 20.4613 64.4178 22.0897C64.4178 22.9622 64.5196 23.7473 64.7231 24.4455C64.9265 25.1436 65.2174 25.7396 65.5955 26.2339C65.9737 26.7282 66.4194 27.1064 66.9332 27.3681C67.4467 27.6298 67.9948 27.7607 68.5764 27.7607C69.1968 27.7607 69.8075 27.6151 70.4087 27.3242C71.0003 27.0379 71.4703 26.62 71.818 26.0698C71.8269 26.0558 71.845 26.0513 71.8594 26.0596L72.4493 26.4079C72.463 26.4161 72.4685 26.4333 72.4616 26.4477C72.3078 26.771 72.1081 27.1307 71.8628 27.5274C71.6107 27.9343 71.276 28.3176 70.8595 28.6759C70.4423 29.0349 69.9336 29.3354 69.3328 29.5775C68.7316 29.8197 67.9948 29.941 67.1226 29.941C66.134 29.941 65.2564 29.7711 64.4908 29.432C63.7245 29.0928 63.0754 28.6081 62.5424 27.9778C62.009 27.3479 61.6017 26.5919 61.3209 25.7095C61.0396 24.8274 60.9088 23.8337 60.9283 22.7286L60.928 22.7289Z" fill="#003E93"/>
<path d="M73.6739 27.4114V13.0158C73.6739 12.5119 73.5721 12.1577 73.3686 11.9542C73.1693 11.7548 72.8254 11.6531 72.3379 11.649C72.3211 11.649 72.3071 11.6353 72.3071 11.6185V10.7991C72.3071 10.7858 72.316 10.7738 72.3287 10.7697L77.0072 9.30562C77.0271 9.29945 77.0473 9.31418 77.0473 9.33508V17.1613C77.0473 17.1884 77.0795 17.2021 77.099 17.1836C77.5717 16.7424 78.1167 16.4053 78.734 16.171C79.3739 15.9288 80.0617 15.8076 80.7989 15.8076C81.4193 15.8076 82.0105 15.8757 82.573 16.011C83.1351 16.147 83.6345 16.37 84.0706 16.68C84.5067 16.9904 84.8509 17.3977 85.103 17.9016C85.3548 18.4061 85.4812 19.0262 85.4812 19.7626V27.4111C85.4812 27.9153 85.583 28.2692 85.7864 28.4727C85.9858 28.672 86.329 28.7738 86.8172 28.7779C86.8339 28.7779 86.848 28.7916 86.848 28.8084V29.6195C86.848 29.6366 86.8343 29.6503 86.8172 29.6503H80.7715C80.7544 29.6503 80.7407 29.6366 80.7407 29.6195V28.8084C80.7407 28.7916 80.7547 28.7779 80.7715 28.7779C81.2589 28.7738 81.6029 28.672 81.8022 28.4727C82.0057 28.2692 82.1074 27.9157 82.1074 27.4111V19.7626C82.1074 18.8902 81.9184 18.1924 81.5402 17.6686C81.162 17.1452 80.5173 16.8835 79.6061 16.8835C79.3735 16.8835 79.1118 16.9373 78.821 17.0435C78.5302 17.1504 78.2537 17.3199 77.992 17.5525C77.7303 17.7851 77.507 18.0811 77.323 18.4394C77.1384 18.7984 77.0466 19.2392 77.0466 19.7626V27.4111C77.0466 27.9153 77.1483 28.2692 77.3518 28.4727C77.5512 28.672 77.8944 28.7738 78.3825 28.7779C78.3993 28.7779 78.4134 28.7916 78.4134 28.8084V29.6195C78.4134 29.6366 78.3997 29.6503 78.3825 29.6503H72.3372C72.3201 29.6503 72.3064 29.6366 72.3064 29.6195V28.8084C72.3064 28.7916 72.3204 28.7779 72.3372 28.7779C72.8247 28.7738 73.1686 28.672 73.368 28.4727C73.5714 28.2692 73.6732 27.9157 73.6732 27.4111L73.6739 27.4114Z" fill="#003E93"/>
</g>
<defs>
<clipPath id="clip0_82_1193">
<rect width="98.9877" height="39" fill="white" transform="translate(0.925903 0.5)"/>
</clipPath>
</defs>
</svg>
