<svg width="170" height="32" viewBox="0 0 170 32" fill="none" xmlns="http://www.w3.org/2000/svg">
<g style="mix-blend-mode:luminosity" clip-path="url(#clip0_82_1251)">
<path d="M22.003 22.6586L23.567 15.9763L24.8466 22.6586H22.003ZM9.96545 16.7346C9.96545 18.6302 9.20718 19.9098 6.88497 20.6207V14.8863C7.35889 14.7441 7.78542 14.6493 8.25934 14.6493C9.49153 14.6493 9.96545 15.5971 9.96545 16.7346ZM56.8836 21.4264L58.6845 13.2275L60.3906 21.4264H56.8836ZM41.5759 9.67315C43.519 9.67315 44.2299 10.7158 44.2299 12.4693C44.2299 14.365 43.2347 15.9763 41.102 16.5924V9.67315H41.5759ZM156.312 16.0237C156.312 15.455 156.739 15.1232 157.449 15.1232C158.824 15.1232 161.288 16.545 162.805 17.7298V11.948C161.004 10.7158 158.776 9.81532 156.359 9.81532C152.426 9.81532 150.009 12.1375 150.009 16.1185C150.009 22.8955 157.497 22.8955 157.497 25.1703C157.497 25.8812 157.07 26.213 155.98 26.213C153.753 26.213 150.957 24.6964 150.009 23.796V29.9095C151.81 30.9522 154.416 31.6157 156.691 31.6157C161.193 31.6157 163.8 29.1039 163.8 25.0756C163.8 18.4881 156.312 18.1563 156.312 16.0237ZM16.2686 15.8815C16.2686 11.1423 13.3303 9.24662 9.44414 9.24662C6.83758 9.24662 3.80449 10.0997 0.913574 11.474V31.047H6.88497V26.3551C11.9085 25.3599 16.2686 21.6159 16.2686 15.8815ZM97.309 8.10921C100.058 8.10921 101.337 10.9527 101.337 15.9763C101.337 20.9998 100.058 23.8434 97.309 23.8434C94.5602 23.8434 93.2806 20.9998 93.2806 15.9763C93.2806 10.9527 94.5602 8.10921 97.309 8.10921ZM13.2355 31.047H19.6334L20.5339 27.8717H26.0314L26.7896 31.047H33.4719L26.6948 5.31308C24.7518 5.50265 22.5717 5.83439 20.9604 6.30831L13.2355 31.047ZM135.744 5.12351C134.133 4.79177 132.284 4.46002 131.005 4.36524V31.047H137.118V20.052L143.611 31.047H148.303V7.73007C146.36 7.20876 144.464 6.82962 142.426 6.45049V17.9194L135.744 5.12351ZM51.1017 11.9006C51.1017 6.30831 47.9739 3.18044 41.4812 3.18044C39.3959 3.18044 36.5998 3.51218 34.3723 4.17567V31.047H41.1494V23.796C46.8838 22.0425 51.1017 17.872 51.1017 11.9006ZM117.071 14.3176V2.65912C115.365 2.32738 111.953 1.99564 110.247 1.94824V31.047H117.071V20.6207H121.574V31.047H128.398V4.03349C126.266 3.65436 123.659 3.32261 121.574 3.13304V14.3176H117.071ZM47.3104 31.047H54.3244L55.367 27.0186H61.6702L62.855 31.047H70.0112L61.9545 1.52172C60.2484 1.52172 57.4523 1.71128 55.8883 1.90085L47.3104 31.047ZM77.4043 22.6586C77.4043 24.2699 76.5039 24.9808 75.1295 24.9808C74.4186 24.9808 73.613 24.7912 72.8073 24.4595V31.0943C74.1817 31.5683 75.2243 31.6157 76.646 31.6157C80.627 31.6157 84.4657 29.5778 84.4657 23.0851V0.858226C82.5227 0.71605 79.3948 0.71605 77.4517 0.858226V22.6586H77.4043ZM97.309 31.6157C104.276 31.6157 108.588 25.5021 108.588 15.9763C108.588 7.30354 104.892 0.336914 97.1194 0.336914C90.295 0.336914 86.0771 6.59266 86.0771 15.9763C86.0297 26.1656 90.3423 31.6157 97.309 31.6157ZM169.914 16.0237C169.914 16.782 169.629 17.398 169.108 17.9668C168.587 18.5355 167.923 18.7724 167.165 18.7724C166.407 18.7724 165.743 18.4881 165.222 17.9668C164.7 17.4454 164.416 16.7819 164.416 16.0711C164.416 15.3128 164.7 14.6967 165.222 14.128C165.743 13.6067 166.407 13.3223 167.165 13.3223C167.923 13.3223 168.587 13.6067 169.108 14.128C169.629 14.6493 169.914 15.2654 169.914 16.0237ZM169.582 16.0711C169.582 15.3602 169.345 14.7915 168.871 14.365C168.397 13.9384 167.828 13.6541 167.117 13.6541C166.454 13.6541 165.838 13.891 165.411 14.365C164.937 14.8389 164.7 15.4076 164.7 16.0711C164.7 16.7346 164.937 17.3033 165.411 17.7772C165.885 18.2511 166.454 18.4407 167.165 18.4407C167.828 18.4407 168.444 18.2037 168.871 17.7298C169.297 17.2559 169.582 16.7346 169.582 16.0711ZM168.776 17.5402H167.828L166.975 16.4976H166.786V17.5402H165.98V14.4123H167.165C167.591 14.4123 167.923 14.5071 168.16 14.6967C168.397 14.8863 168.492 15.1232 168.492 15.455C168.492 15.6445 168.444 15.8341 168.35 15.9763C168.255 16.1185 168.065 16.2606 167.876 16.3554L168.776 17.5402ZM167.07 15.0284H166.786V15.9289H167.07C167.26 15.9289 167.402 15.8815 167.497 15.7867C167.591 15.6919 167.639 15.5971 167.639 15.455C167.639 15.3128 167.591 15.218 167.497 15.1232C167.354 15.0758 167.26 15.0284 167.07 15.0284Z" fill="#FF0000"/>
</g>
<defs>
<clipPath id="clip0_82_1251">
<rect width="169" height="31.2314" fill="white" transform="translate(0.913574 0.384277)"/>
</clipPath>
</defs>
</svg>
