<svg width="94" height="42" viewBox="0 0 94 42" fill="none" xmlns="http://www.w3.org/2000/svg">
<g style="mix-blend-mode:luminosity">
<path d="M93.9942 27.7315C93.9942 28.8098 93.1492 29.6573 92.045 29.6573C90.9564 29.6573 90.0854 28.8124 90.0854 27.7315C90.0854 26.6766 90.9564 25.829 92.045 25.829C93.1466 25.829 93.9942 26.6766 93.9942 27.7315ZM90.5727 27.7315C90.5727 28.5791 91.2 29.2504 92.058 29.2504C92.8926 29.2504 93.5095 28.5791 93.5095 27.7445C93.5095 26.8969 92.8952 26.2126 92.0476 26.2126C91.2 26.2126 90.5727 26.8969 90.5727 27.7315ZM91.7106 28.3976L91.2804 28.3821L91.34 26.788C91.511 26.7647 91.7495 26.7543 92.0554 26.7647C92.4053 26.7776 92.5634 26.8321 92.6956 26.9072C92.7941 26.9772 92.8692 27.1068 92.8641 27.2649C92.8563 27.4412 92.693 27.5708 92.4649 27.62V27.6408C92.6437 27.7056 92.7422 27.8274 92.7889 28.0425C92.8356 28.2888 92.8667 28.3873 92.9107 28.4469L92.4468 28.4287C92.3923 28.3691 92.3638 28.2214 92.3146 28.0348C92.2886 27.8585 92.1772 27.7756 91.9387 27.7678L91.734 27.76L91.7106 28.3976ZM91.7547 27.6511H91.9646C92.2083 27.6511 92.4053 27.5708 92.4053 27.3738C92.4053 27.2001 92.2783 27.0835 91.9983 27.0835C91.8817 27.0835 91.8013 27.0939 91.7547 27.1068V27.6511Z" fill="#F16511"/>
<path d="M1.05577 28.255C1.62341 28.5582 2.17032 28.7786 2.6939 28.9211C3.2123 29.0637 3.72033 29.1362 4.20503 29.1362C5.3455 29.1362 6.26047 28.8615 6.95771 28.312C7.65237 27.7651 7.99969 27.0471 7.99969 26.1555C7.99969 25.4582 7.81048 24.8076 7.43205 24.2011C7.05103 23.5972 6.34342 22.8662 5.29885 22.0083C5.12259 21.8813 4.88672 21.6921 4.58605 21.4381C1.91631 19.2115 0.578844 17.2442 0.578844 15.5283C0.578844 14.8285 0.713627 14.1287 0.985785 13.4314C1.25535 12.7316 1.64674 12.0654 2.16773 11.4278C3.16564 10.2381 4.32945 9.32571 5.66432 8.69845C7.00178 8.07119 8.44033 7.75757 9.98515 7.75757C10.7472 7.75757 11.3226 7.90531 11.7192 8.1982C12.1132 8.4911 12.3102 8.91618 12.3102 9.47346C12.3102 9.74303 12.2402 10.0644 12.0976 10.4403C11.9577 10.8135 11.7192 11.2853 11.3874 11.8581C10.9597 11.6844 10.558 11.5522 10.177 11.4641C9.79853 11.376 9.42788 11.3319 9.06241 11.3319C7.75086 11.3319 6.68815 11.6533 5.87427 12.2961C5.06298 12.9389 4.65344 13.771 4.65344 14.787C4.65344 15.9016 5.74985 17.4023 7.94785 19.2919C8.50254 19.7688 8.92244 20.1421 9.20237 20.4116C10.1355 21.2385 10.825 22.0549 11.2656 22.8533C11.7062 23.6568 11.9291 24.4785 11.9291 25.3208C11.9291 27.3037 11.053 29.0196 9.31124 30.4556C7.56424 31.8941 5.444 32.6147 2.94792 32.6147C2.08219 32.6147 1.41346 32.4384 0.946907 32.0885C0.48035 31.7386 0.24707 31.2461 0.24707 30.6111C0.24707 30.3078 0.311869 29.9761 0.436284 29.6106C0.565883 29.2503 0.770652 28.7967 1.05577 28.255Z" fill="#F16511"/>
<path d="M27.0353 32.6146C23.816 32.6146 21.1981 31.4819 19.1738 29.2165C17.1469 26.9511 16.136 24.0455 16.136 20.4971C16.136 16.7258 17.2143 13.6646 19.3786 11.3137C21.5403 8.96018 24.35 7.78601 27.7999 7.78601C30.9155 7.78601 33.4867 8.90316 35.5007 11.1349C37.5173 13.3666 38.5255 16.1944 38.5255 19.6158C38.5255 20.9922 38.3363 22.3556 37.9527 23.7034C37.5717 25.0486 37.0533 26.1969 36.4053 27.1481C35.1689 28.9703 33.7744 30.3337 32.2141 31.2461C30.6641 32.1584 28.9352 32.6146 27.0353 32.6146ZM27.2841 29.1932C29.5314 29.1932 31.3691 28.3327 32.805 26.6142C34.2384 24.8983 34.9564 22.6925 34.9564 20.002C34.9564 17.3712 34.2514 15.2302 32.8491 13.5713C31.4391 11.9176 29.6143 11.0882 27.3671 11.0882C25.0809 11.0882 23.2328 11.9487 21.828 13.6672C20.4231 15.3857 19.7181 17.6641 19.7181 20.4997C19.7181 23.0165 20.4309 25.0953 21.8617 26.736C23.2847 28.3741 25.0965 29.1932 27.2841 29.1932Z" fill="#F16511"/>
<path d="M47.2839 38.7084C48.0718 38.0578 48.7924 37.2594 49.4482 36.3134C50.1013 35.3673 50.739 34.1983 51.3585 32.8038L52.1205 31.1605C48.8028 23.159 46.4881 18.001 45.1688 15.6838C43.8495 13.3665 42.696 12.1198 41.7085 11.9461C42.0169 10.6449 42.4576 9.62111 43.0278 8.87462C43.5955 8.12813 44.2124 7.75488 44.8785 7.75488C45.3606 7.75488 45.752 7.87152 46.0604 8.09961C46.3663 8.3303 46.667 8.75539 46.9624 9.37487C47.0402 9.53558 47.8463 11.5366 49.3937 15.3883C50.9385 19.24 52.5534 22.9828 54.2537 26.6167C56.3817 21.9952 57.9732 18.2835 59.0307 15.4738C60.0857 12.6641 60.6118 10.7279 60.6118 9.66258C60.6118 9.45522 60.5963 9.25823 60.5574 9.06643C60.5159 8.87462 60.4745 8.69318 60.4304 8.51693C60.5393 8.48582 60.7077 8.4288 60.9384 8.35104C62.0608 7.95187 62.8643 7.75488 63.3464 7.75488C63.9011 7.75488 64.3391 7.91558 64.6631 8.23181C64.9897 8.54803 65.153 8.97052 65.153 9.49151C65.153 10.1784 64.0618 12.8429 61.8767 17.4956C59.6943 22.1456 57.8332 26.4094 56.291 30.2818C55.8244 31.443 55.2309 32.9904 54.5077 34.9266C52.8722 39.3071 51.571 41.4999 50.6016 41.4999C50.091 41.4999 49.5518 41.2563 48.9816 40.7742C48.401 40.2843 47.8385 39.5974 47.2839 38.7084Z" fill="#F16511"/>
<path d="M88.3202 31.0725C87.7189 31.4768 87.172 31.7879 86.6795 32.0004C86.187 32.2104 85.7567 32.3141 85.3835 32.3141C84.7251 32.3141 84.243 32.0989 83.9424 31.6687C83.6417 31.241 83.4706 30.5437 83.424 29.5873C82.2705 30.6267 81.1275 31.3991 79.9948 31.9019C78.8672 32.4074 77.7164 32.6562 76.5474 32.6562C74.238 32.6562 72.3795 31.9745 70.9617 30.6111C69.5465 29.2477 68.8389 27.4515 68.8389 25.2276C68.8389 22.7108 69.8135 20.6916 71.76 19.1727C73.704 17.6538 76.3245 16.8969 79.6163 16.8969C80.1555 16.8969 80.7309 16.9151 81.3374 16.9566C81.9439 16.998 82.5971 17.0602 83.2892 17.1406C83.3177 16.9928 83.3384 16.8425 83.3436 16.6896C83.3566 16.5367 83.3566 16.3526 83.3566 16.1427C83.3566 14.4553 82.9056 13.1671 82.0061 12.2806C81.1041 11.3967 79.803 10.9535 78.0948 10.9535C76.6796 10.9535 75.5106 11.2023 74.5957 11.6974C73.6807 12.1925 72.9394 12.9597 72.3691 13.9991C71.8171 13.8514 71.3972 13.6025 71.112 13.2448C70.8269 12.8871 70.6844 12.4232 70.6844 11.8581C70.6844 10.671 71.3972 9.69381 72.8202 8.9214C74.2431 8.15158 76.1016 7.76538 78.3903 7.76538C81.2104 7.76538 83.3203 8.48336 84.7251 9.91932C86.13 11.3579 86.835 13.5066 86.835 16.363C86.835 16.8995 86.8143 17.8301 86.7676 19.1623C86.721 20.4946 86.695 21.5677 86.695 22.379C86.695 24.621 86.8221 26.4225 87.0787 27.7859C87.3353 29.1467 87.7474 30.2431 88.3202 31.0725ZM83.2425 20.2328C82.5323 20.1188 81.8947 20.0332 81.3348 19.9762C80.7724 19.9192 80.2928 19.8933 79.8911 19.8933C77.5065 19.8933 75.7076 20.308 74.492 21.1452C73.2815 21.9824 72.6698 23.2317 72.6698 24.8854C72.6698 26.2151 73.0897 27.2623 73.9373 28.0269C74.7823 28.789 75.9539 29.17 77.4442 29.17C78.5692 29.17 79.6189 28.9497 80.5935 28.5013C81.5733 28.0554 82.4649 27.3867 83.284 26.4899C83.2529 25.6786 83.2322 25.0176 83.2244 24.507C83.2166 23.9938 83.214 23.5039 83.214 23.0348C83.214 22.7419 83.2192 22.2831 83.2399 21.6584C83.2555 21.0311 83.2555 20.5568 83.2425 20.2328Z" fill="#F16511"/>
<path d="M32.4032 0.5H22.2686V3.59482H32.4032V0.5Z" fill="#F16511"/>
</g>
</svg>
