<svg width="127" height="42" viewBox="0 0 127 42" fill="none" xmlns="http://www.w3.org/2000/svg">
<g style="mix-blend-mode:luminosity">
<path d="M20.6207 1.40295H-0.00634766V6.50171H20.6207V1.40295Z" fill="#A3A3A3"/>
<path d="M13.1574 8.89783H7.42725V26.9219H13.1574V8.89783Z" fill="#A3A3A3"/>
<path d="M54.154 6.53638C48.618 6.53638 44.1301 11.0242 44.1301 16.5602V26.9235H49.4294V16.5602C49.4294 13.9509 51.5446 11.834 54.1556 11.834C56.7665 11.834 58.8818 13.9493 58.8818 16.5602V26.9235H64.181V16.5602C64.1779 11.0242 59.69 6.53638 54.154 6.53638Z" fill="#A3A3A3"/>
<path d="M41.5035 19.1112C41.6219 18.5003 41.6866 17.872 41.6866 17.2296C41.6866 11.553 36.8657 6.95154 30.9176 6.95154C24.9696 6.95154 20.1487 11.553 20.1487 17.2296C20.1487 22.9061 24.9696 27.5076 30.9176 27.5076C35.6439 27.5076 39.6566 24.5999 41.1057 20.5587H35.1419C34.1584 21.8153 32.6335 22.6251 30.9176 22.6251C28.6098 22.6251 26.6476 21.1618 25.8852 19.1112H41.5035ZM25.882 15.359C26.6397 13.3021 28.605 11.834 30.9176 11.834C33.2302 11.834 35.1955 13.3021 35.9532 15.359H25.882Z" fill="#A3A3A3"/>
<path d="M106.902 6.97217C100.992 6.97217 96.2021 11.5737 96.2021 17.2518C96.2021 22.9299 100.993 27.5314 106.902 27.5314C112.812 27.5314 117.601 22.9299 117.601 17.2518C117.601 11.5737 112.81 6.97217 106.902 6.97217ZM106.902 22.6662C103.956 22.6662 101.568 20.2416 101.568 17.2518C101.568 14.2604 103.956 11.8373 106.902 11.8373C109.847 11.8373 112.236 14.262 112.236 17.2518C112.236 20.2416 109.847 22.6662 106.902 22.6662Z" fill="#081F2D"/>
<path d="M94.6364 11.8341H79.9842V15.9415H88.7815C87.817 19.5801 84.5573 22.4136 80.6819 22.4136C76.0472 22.4136 72.2918 18.6566 72.2918 14.0235C72.2918 9.38888 76.0488 5.63348 80.6819 5.63348C83.1492 5.63348 85.6638 6.61535 87.1998 8.2318H93.8313C91.6245 3.6145 86.4058 0.5 80.6819 0.5C72.898 0.5 66.5869 6.55536 66.5869 14.0251C66.5869 21.4949 72.8964 27.5502 80.6819 27.5502C88.4658 27.5502 94.7769 21.1997 94.7769 13.7299C94.7769 13.0827 94.7264 12.4513 94.6364 11.8341Z" fill="#081F2D"/>
<path d="M125.857 1.09827H120.542V19.5864H125.857V1.09827Z" fill="#081F2D"/>
<path d="M123.2 27.4602C124.9 27.4602 126.278 26.0821 126.278 24.382C126.278 22.682 124.9 21.3038 123.2 21.3038C121.5 21.3038 120.122 22.682 120.122 24.382C120.122 26.0821 121.5 27.4602 123.2 27.4602Z" fill="#081F2D"/>
<path d="M29.5805 36.4534H27.7004V35.4368C29.4116 35.4368 30.8591 35.4368 32.5782 35.4368V36.4534H30.6981V41.3658H29.5805V36.4534Z" fill="#081F2D"/>
<path d="M40.4381 38.4346C40.4208 39.9673 39.4815 41.5001 37.3978 41.5001C35.3141 41.5001 34.3496 40.0005 34.3496 38.4424C34.3496 36.8844 35.3488 35.3169 37.3978 35.3169C39.4389 35.3185 40.4555 36.8844 40.4381 38.4346ZM35.4499 38.4598C35.4751 39.4338 36.0008 40.4756 37.3978 40.4756C38.7948 40.4756 39.3205 39.4259 39.3379 38.4519C39.3552 37.4527 38.7964 36.3351 37.3978 36.3351C36.0008 36.3351 35.4246 37.4606 35.4499 38.4598Z" fill="#081F2D"/>
<path d="M47.832 38.3491C47.8572 39.8487 46.9433 41.3641 44.8674 41.3641C44.1397 41.3641 43.2668 41.3641 42.5391 41.3641V35.4351C43.2668 35.4351 44.1397 35.4351 44.8674 35.4351C46.9006 35.4366 47.8067 36.8842 47.832 38.3491ZM43.6488 40.2891H44.869C46.2155 40.2891 46.7491 39.3073 46.7238 38.3412C46.6986 37.4177 46.1571 36.4943 44.869 36.4943H43.6488V40.2891Z" fill="#081F2D"/>
<path d="M55.8368 38.4346C55.8194 39.9673 54.8802 41.5001 52.7965 41.5001C50.7128 41.5001 49.7483 40.0005 49.7483 38.4424C49.7483 36.8844 50.7475 35.3169 52.7965 35.3169C54.8376 35.3185 55.8526 36.8844 55.8368 38.4346ZM50.8485 38.4598C50.8738 39.4338 51.3995 40.4756 52.7965 40.4756C54.1935 40.4756 54.7192 39.4259 54.7365 38.4519C54.7539 37.4527 54.1951 36.3351 52.7965 36.3351C51.3979 36.3351 50.8217 37.4606 50.8485 38.4598Z" fill="#081F2D"/>
<path d="M63.1801 37.0705L61.2495 39.6451H61.0285L59.1406 37.0626V41.3737H58.0229V35.4446H59.3111L61.1659 37.994L63.0207 35.4446H64.2993V41.3737H63.1817V37.0705H63.1801Z" fill="#081F2D"/>
<path d="M70.9138 40.2465H67.8135L67.3052 41.3641H66.0945L68.7544 35.4351H69.9746L72.6345 41.3641H71.4142L70.9138 40.2465ZM69.3637 36.6821L68.2634 39.2062H70.4655L69.3637 36.6821Z" fill="#081F2D"/>
<path d="M79.7473 41.3659H78.4181L76.6912 39.3848H75.6162V41.3659H74.4985V35.429C75.4394 35.429 76.3786 35.4368 77.3194 35.4368C78.7165 35.4447 79.4536 36.3777 79.4536 37.4022C79.4536 38.2151 79.0811 39.036 77.954 39.2649L79.7488 41.2886V41.3659H79.7473ZM75.6146 36.4787V38.3761H77.3163C78.0282 38.3761 78.3329 37.9026 78.3329 37.4274C78.3329 36.9538 78.0187 36.4787 77.3163 36.4787H75.6146Z" fill="#081F2D"/>
<path d="M86.3205 35.4698L83.6859 38.3065L86.5399 41.2963V41.3641H85.1587L82.6772 38.739V41.3641H81.5596V35.4351H82.6772V37.9418L84.9298 35.4351H86.3189V35.4698H86.3205Z" fill="#081F2D"/>
<path d="M92.8841 41.3658H88.4468C88.4468 39.3926 88.4468 37.41 88.4468 35.4368H92.8841V36.5212H89.5549V37.8851H92.7641V38.927H89.5549V40.2656H92.8841V41.3658Z" fill="#081F2D"/>
<path d="M96.9838 36.4534H95.1038V35.4368C96.8149 35.4368 98.2625 35.4368 99.9815 35.4368V36.4534H98.1014V41.3658H96.9838V36.4534Z" fill="#081F2D"/>
</g>
</svg>
